<svg width="302" height="291" viewBox="0 0 302 291" fill="none" xmlns="http://www.w3.org/2000/svg">
<g filter="url(#filter0_f_1138_7221)">
<path d="M83.1301 270.308L30.1019 238.734C22.2452 234.055 25.5624 222.001 34.7063 222.001L208.108 222C209.762 222 211.384 222.456 212.796 223.318L252.411 247.494C259.943 252.09 257.036 263.622 248.225 264.078C189.043 267.139 155.687 267.702 88.2853 271.559C86.4907 271.662 84.6746 271.228 83.1301 270.308Z" fill="black" fill-opacity="0.2"/>
</g>
<path d="M236.09 114.176L213.702 62.7763L204.128 54.6868L187.16 48.2403L155.996 42.7183L129.349 45.0825L98.1228 49.4507L78.354 55.4349L66.7861 63.4882L59.9537 69.8199L46.3569 83.9944L37.6627 97.3399L33.5913 111.902L31.8814 118.788L21.928 123.785L12.1331 134.404L6.51784 145.084C6.51784 145.084 2.71629 158.28 2.62587 158.999C2.53544 159.718 3.39035 172.501 3.39035 172.501L5.8484 180.248L7.89915 171.927L11.9728 157.204L15.5653 152.916L22.0283 161.04L24.739 173.441L30.0559 194.4L31.1923 205.017L39.7889 215.663L52.4153 222.217L56.6216 198.345L62.8424 179.003L70.16 173.009L77.5423 173.596L80.3064 182.307L83.4067 189.902L86.7548 202.482L87.9027 212.3L88.9558 217.616L89.3626 228.193L102.167 242.46L121.53 247.24L153.811 252.929L171.84 250.35L205.758 250.041L237.629 245.362L275.833 235.714L290.101 226.28L297.466 217.066L297.309 205.822L294.02 199.514L291.712 192.42L292.842 180.705L288.969 159.447L281.182 142.632L271.214 132.047L253.517 122.789L259.267 119.342L263.405 110.571L257.911 101.821L250.225 100.099L240.008 106.702L236.039 114.195L236.059 114.196L236.09 114.176Z" fill="#959595"/>
<path d="M105.03 242.252L99.2954 255.661L90.5376 260.964L80.5699 266.95L69.0844 261.724L59.6822 245.926L54.7177 222.731L56.6411 198.347L65.2598 177.099L70.1799 172.99L79.2318 177.062L86.7747 202.464L88.0799 214.534L88.7386 218.774L89.3624 228.184L94.4562 239.689L105.02 242.252L105.03 242.252Z" fill="#3D3D3D"/>
<path d="M284.984 231.608L282.177 242.418L273.348 253.372L260.731 259.219L246.085 259.547L246.314 256.84L255.071 250.947L261.438 243.568L263.187 239.493L284.984 231.608Z" fill="#3D3D3D"/>
<path d="M19.349 156.091L24.7583 173.431L27.1089 185.837L29.0798 199.597C29.7809 202.287 30.4921 204.968 31.1932 207.658C31.2824 210.48 31.2634 217.31 28.5001 223.731C28.5001 223.731 26.5958 228.154 22.1001 231.969C21.8368 232.195 21.5054 232.29 21.1227 232.475C19.9041 233.057 13.5636 222.004 13.5636 222.004L8.06692 202.402L7.69944 178.065L10.3709 160.031L17.6839 154.357L19.3493 156.071L19.3593 156.071L19.349 156.091Z" fill="#3D3D3D"/>
<path d="M74.5292 173.705L74.7158 175.318L69.8423 176.907L68.8549 175.343L72.5524 173.466L74.5292 173.705Z" fill="#2C2C2C"/>
<path d="M193.158 65.5693C191.691 67.4482 193.246 67.1007 190.853 67.2761C180.963 67.2428 167.34 65.2353 157.639 65.2547C142.907 65.9814 122.693 68.1488 108.275 69.2901C105.672 69.5224 103.008 69.7738 100.525 69.2478C96.7804 68.8535 91.8059 63.6109 95.9805 61.2511C105.48 57.1983 134.683 53.0609 159.014 53.8735C163.013 53.9414 168.607 54.4125 172.221 54.8649C179.439 55.7695 183.32 56.3658 189.816 58.1301C192.684 58.9717 194.178 62.1037 193.189 65.4997L193.148 65.5691L193.158 65.5693Z" fill="#A7A7A7"/>
<path d="M210.415 122.635C188.132 121.992 170.697 122.269 148.267 125.515C144.256 126.267 135.417 126.799 139.79 132.883C142.453 136.792 145.797 140.711 148.732 144.523C157.479 155.841 166.547 161.563 181.039 162.883C194.241 164.245 215.78 165.187 225.488 155.687C232.711 147.98 232.016 135.889 224.928 128.105C221.253 124.292 215.761 122.952 210.615 122.658L210.425 122.655L210.415 122.635Z" fill="#A7A7A7"/>
<path d="M265.377 145.653L275.046 153.364L280.561 164.795L280.1 174.57L276.156 185.864L268.175 192.059L255.201 195.021L246.468 188.274L238.492 172.697L242.528 155.083L256.886 144.25L265.377 145.633L265.377 145.653Z" fill="#CAF698"/>
<path d="M146.119 156.927L151.27 167.232L153.03 182.44L149.946 189.646L143.542 198.134L130.581 202.236L119.06 198.779L110.973 186.121L109.896 169.283L116.032 156.501L125.358 152.016L137.941 151.208L146.119 156.927Z" fill="#CAF698"/>
<path d="M79.3794 246.209C82.9455 251.331 86.7406 242.035 89.5394 236.615C91.7958 232.738 88.2277 213.254 87.5908 208.894C86.7624 205.322 86.1796 202.063 84.1328 199.063C82.7963 197.434 76.5101 199.193 74.6911 200.497C71.9614 202.527 70.8872 208.332 69.6972 212.465C68.1489 217.854 67.8205 235.001 69.8625 240.401L79.3792 246.219L79.3794 246.209Z" fill="#4E4E4E"/>
<path d="M13.8979 185.805C13.7963 207.315 18.7835 214.448 20.6959 215.676C22.9453 217.119 25.7672 203.198 25.5197 193.364C28.1749 191.642 25.9155 182.608 21.4162 177.003C20.5812 175.96 18.9991 174.027 17.6739 174.378C16.8005 174.606 16.5947 175.693 14.924 181.249C13.9049 184.635 13.7497 184.992 13.8978 185.815L13.8979 185.805Z" fill="#4E4E4E"/>
<path d="M79.6426 129.421C85.3883 132.524 88.8272 134.694 91.0463 136.156C102.102 143.437 110.112 151.054 115.381 156.691L109.42 169.136L109.038 181.742L114.978 192.819L119.385 199.284L127.766 202.735L144.184 197.433L148.317 188.982L151.309 181.964C151.309 181.964 194.281 204.909 241.076 179.404L244.63 188.767L255.636 193.987L269.302 192.975L277.424 186.662L280.757 172.658L281.906 165.204L277.95 138.644L288.669 152.611L292.093 170.972C291.678 173.357 291.274 175.741 290.869 178.125C290.399 180.879 288.833 185.437 286.09 190.478C282.063 197.84 277.157 202.329 274.259 204.918C269.041 209.603 263.602 212.964 257.337 215.974C251.909 218.575 234.484 226.394 207.903 228.339C192.355 229.474 176.836 229.969 165.884 228.69C148.252 226.635 144.696 224.933 141.208 224.092C121.824 219.391 109.342 212.55 102.01 202.232C98.7954 197.715 96.2349 190.827 96.2349 190.827C93.3789 185.005 92.5068 178.242 86.4266 165.093C85.8932 163.945 84.9327 161.901 83.2271 159.516C82.5215 158.515 80.2459 155.432 76.646 152.64C71.6716 148.767 66.7234 147.225 63.8827 146.564C57.9486 144.728 46.5152 142.812 40.5812 140.976C26.3667 134.279 18.4898 135.385 13.8229 137.208C12.787 137.613 10.6546 139.142 10.272 138.627C9.33022 137.363 18.5912 127.696 26.3611 120.858C27.4018 119.433 28.5939 117.92 29.9565 116.369C31.0953 115.076 32.2223 113.912 33.3076 112.868C40.0098 116.215 47.7413 119.617 56.4674 122.714C64.7855 125.665 72.5751 127.818 79.6128 129.41L79.6426 129.421Z" fill="#878787"/>
<path opacity="0.42" d="M63.4135 132.698C60.5886 135.087 57.9814 139.02 59.1478 142.727C61.2376 146.898 66.0665 144.248 67.9402 141.245C70.1153 138.146 72.7444 134.773 75.6729 132.136C78.9146 128.592 85.3319 126.065 85.8121 120.531C85.8728 109.441 85.9736 98.3413 86.1349 87.2025C86.2114 81.923 85.9613 75.7188 83.7974 70.4469C79.3994 60.6121 67.1155 67.0048 60.6298 72.1814C51.3019 79.5671 45.3308 87.8815 41.9104 98.9331C40.6417 102.975 39.4321 107.078 38.2342 111.071C38.0661 111.629 37.8746 112.416 37.9981 112.868C38.3781 114.254 44.9587 109.428 46.3518 109.218C49.1788 108.069 51.8423 108.538 54.5304 108.687C56.3802 108.714 58.2338 108.481 60.475 109.103C62.128 109.597 63.8713 110.072 65.3083 110.983C67.1584 112.37 69.5938 114.776 71.5394 116.474C73.3172 118.02 74.2466 119.444 75.7955 121.606C77.2529 123.868 78.8947 125.822 78.556 128.497C78.3498 129.614 78.0111 130.899 76.9438 131.394C72.7156 131.933 67.2961 129.094 63.5852 132.581L63.4234 132.708L63.4135 132.698Z" fill="#6F6F6F"/>
<path d="M4.21093 151.022C5.2276 143.666 11.2652 135.593 19.7084 135.435C23.2628 135.157 26.0022 135.906 29.5189 136.847C34.6296 138.222 39.697 139.815 44.7187 141.118C55.7382 143.988 67.6115 145.92 76.9298 153.006C81.9806 156.439 84.5234 161.097 86.977 166.393C94.2603 181.4 95.6965 194.102 103.209 202.932C114.201 216.022 136.688 223.289 152.024 226.411C165.35 228.885 178.477 228.915 191.133 228.588C203.789 228.261 211.472 227.412 223.68 225.559C235.888 223.706 249.865 220.868 262.19 212.986C267.226 209.858 271.778 206.304 275.887 202.273C279.53 198.645 284.118 193.971 287.541 186.93C289.147 183.723 290.432 179.961 291.211 176.592C291.797 174.091 292.05 171.844 292.205 172.186C292.793 178.535 293.476 188.676 293.647 194.099C292.961 198 291.23 202.145 289.736 205.864C287.755 209.436 283.764 211.488 281.721 215.159C280.413 217.1 278.676 219.655 277.378 221.517C276.532 222.615 276.377 222.982 275.403 223.268C267.36 224.772 225.781 234.111 208.512 237.311C202.997 237.661 181.108 240.194 174.702 240.551C162.958 240.051 136.755 242.152 130.078 241.855C127.6 241.739 126.643 240.815 123.848 239.745C115.529 236.184 97.2301 228.378 92.7477 226.443C90.3519 225.448 90.3991 222.188 89.4622 219.894C86.0186 210.454 85.8693 200.05 83.1474 190.5C81.8028 186.66 80.1698 179.956 78.3939 176.209C75.8737 172.753 70.1805 172.24 66.8038 174.751C64.7325 176.202 63.729 179.197 62.6773 181.382C59.6269 188.979 56.7324 201.008 53.7377 210.286C52.4277 213.727 53.6671 218.606 53.2498 221.87C52.9546 223.606 52.3492 222.307 50.7159 221.833C49.1034 221.3 46.2286 217.758 44.4968 217.183C41.1057 215.853 37.267 215.738 35.7103 212.045C34.0917 209.171 32.261 205.754 30.7018 202.931C29.7068 201.197 29.2834 200.051 29.05 198.207C28.4598 194.078 26.8532 182.784 25.9817 176.67C25.5669 174.234 25.6292 172.695 24.679 170.631C23.0679 167.247 20.768 162.393 19.0191 158.848C17.4949 155.675 15.4267 154.155 12.4976 157.523C9.00773 161.633 8.97835 167.113 7.55635 172.073C6.30288 176.445 2.7621 177.164 3.11059 173.129C3.30444 165.961 2.94313 157.765 4.19891 151.162L4.22108 151.012L4.21093 151.022Z" fill="#6B6B6B"/>
<path d="M261.4 106.125C257.127 114.644 248.324 116.816 240.604 110.534C239.9 110.114 239.159 108.833 238.311 109.36C237.765 109.753 236.98 111.491 236.454 112.574C236.278 112.991 236.081 113.479 236.245 113.911C237.076 115.213 239.615 116.68 240.824 117.448C243.47 118.466 247.036 119.448 249.773 120.378C251.097 120.817 251.95 121.269 253.381 121.9C254.931 122.593 255.941 123.307 257.202 121.865C259.153 119.713 262.22 117.878 263.16 115.131C263.43 114.445 263.7 113.749 263.98 113.053C264.368 111.848 265.296 110.581 264.503 109.41C263.855 108.59 262.375 106.489 261.461 106.105L261.401 106.105L261.4 106.125Z" fill="#6B6B6B"/>
<path d="M66.9843 112.595C66.5543 113.969 67.5541 116.064 66.9568 117.946C65.7375 122.028 58.823 122.288 55.5054 121.41C51.1031 120.156 48.4125 118.107 45.6042 114.516C43.2278 111.491 46.2516 107.105 40.5482 114.203C37.0956 118.503 38.9605 125.771 44.0243 128.305C49.8304 130.689 55.9405 132.798 62.3246 131.87C65.5668 131.047 68.883 129.955 72.1853 131.203C74.1874 131.762 77.2362 131.866 78.6297 130.256C80.9391 126.859 74.3412 121.833 72.4178 119.295C70.8716 117.642 68.8226 113.412 67.3854 112.521C67.2563 112.459 67.1164 112.447 67.015 112.546L66.9844 112.585L66.9843 112.595Z" fill="#6B6B6B"/>
<path opacity="0.74" d="M208.116 74.0194L213.937 87.8351L220.414 106.721L222.715 114.225L211.383 114.301L188.35 112.277L162.785 113.837L133.832 116.548L106.295 121.689L99.3196 120.628L95.0284 117.916L93.3255 102.229L93.0987 77.1536L98.7008 72.9043L115.632 68.8091L152.702 63.5256L180.093 67.1027L193.748 68.2606L203.127 69.1166L208.116 74.0094L208.116 74.0194Z" fill="#424242"/>
<path opacity="0.74" d="M78.3829 120.424L79.6017 110.16L80.3651 87.1489L77.6972 73.1788L72.5561 71.8342L68.7785 73.7097L61.634 79.4968L56.3867 84.1013L46.8724 98.1349L43.0809 108.571L52.5436 109.138L60.0452 108.397L67.1804 110.85L72.2625 114.884L74.6757 118.13L75.4838 121.032L78.3827 120.434L78.3829 120.424Z" fill="#424242"/>
<path d="M293.957 201.664C292.601 202.045 291.142 203.324 289.477 205.05C284.431 210.307 277.068 215.931 270.116 219.491C261.036 224.25 250.455 227.397 240.627 229.305C230.045 231.382 217.313 233.538 206.55 234.312C195.227 235.128 171.072 236.328 141.324 233.897C128.168 232.816 115.866 226.667 103.351 222.055C99.6804 220.712 96.7767 216.12 93.3121 216.409C89.2457 216.821 87.3388 222.113 88.1146 225.865C88.7234 229.404 91.5489 236.636 94.4831 239.129C96.2516 240.625 98.1727 241.942 100.146 243.121C106.641 246.936 117.498 247.923 125.459 250.009C134.404 251.798 143.31 252.807 152.209 252.936C160.215 253.282 176.424 252.067 185.85 252.464C191.396 252.744 190.535 252.792 195.807 251.998C209.83 249.851 226.97 248.559 241.06 245.263C246.66 243.914 252.511 242.478 258.151 241.12C263.562 239.728 268.425 238.908 273.345 236.819C278.107 234.638 282.667 231.924 287.5 228.984C292.191 226.241 295.247 221.645 296.772 216.487C298.162 212.406 300.257 200.335 294.077 201.636L293.977 201.665L293.957 201.664Z" fill="#5E5E5E"/>
<path d="M261.495 239.71L258.723 248.101L249.212 255.674L239.069 257.217L233.335 254.004L226.207 246.92L261.485 239.72L261.495 239.71Z" fill="#2C2C2C"/>
<path d="M122.36 247.854L119.043 255.197L112.292 262.81L107.202 266.916L94.1077 269.197L86.466 264.426L93.4524 262.657L98.3719 255.127L103.34 244.918L109.127 244.472L122.36 247.874L122.36 247.854Z" fill="#2C2C2C"/>
<path d="M31.3783 205.951C31.3612 209.891 31.0045 213.116 30.6508 215.442C30.0982 219.064 29.4916 220.895 29.2725 221.522C28.5419 223.632 27.7913 225.741 25.9709 227.825C24.4354 229.573 22.7607 230.579 21.6624 231.143C23.593 231.801 25.5139 232.449 27.4447 233.097L39.4304 233.481L49.9397 226.012L51.4383 220.593L31.3683 205.951L31.3783 205.951Z" fill="#2C2C2C"/>
<path d="M298.452 210.341C297.079 222.323 289.438 228.503 279.281 233.726C274.038 236.67 265.826 238.142 259.189 239.996C248.711 242.504 238.6 245.988 228.151 247.187C218.031 248.47 202.701 251.129 190.999 252.619C185.959 253.256 184.348 252.633 178.616 252.73C170.223 252.878 159.778 251.747 151.485 251.877C143.519 252.251 138.525 251.819 130.826 250.287C123.696 248.844 116.958 248.656 110.194 246.138C102.504 243.346 93.5661 241.037 90.5254 232.782C89.0903 228.98 86.2763 224.399 87.2984 222.194C89.0533 219.799 95.4534 227.433 97.0736 228.806C100.462 231.696 104.891 233.85 108.468 235.482C112.312 237.298 117.111 238.807 121.486 239.891C143.541 245.201 164.219 244.09 186.458 242.962C209.066 241.89 226.753 239.486 248.789 234.374C261.771 231.542 276.705 227.228 287.246 218.3C289.058 216.806 290.723 215.08 292.229 213.311C293.752 211.683 298.914 204.687 298.454 210.201L298.452 210.331L298.452 210.341Z" fill="#4E4E4E"/>
<path d="M53.0531 212.718C53.0531 212.718 44.6321 205.825 38.7569 200.619C38.1645 200.091 37.1508 198.266 35.2937 191.148C32.9436 182.163 32.1871 175.011 31.9609 172.678C31.395 166.869 30.8991 161.751 31.5296 154.82C32.0056 149.576 32.4692 144.492 35.1465 138.491C37.5865 132.985 40.8231 129.102 43.1582 126.695" stroke="#535353" stroke-width="5" stroke-miterlimit="10"/>
<path d="M142.473 155.227C142.473 155.227 139.114 146.137 127.069 137.422C121.715 133.544 116.612 130.97 112.585 129.311C106.163 126.658 105.088 126.332 99.9043 121.697" stroke="#808080" stroke-width="5" stroke-miterlimit="10"/>
<path d="M242.722 155.587C243.114 145.111 242.685 141.555 237.994 132.636C235.571 128.02 233.235 125.656 231.172 123.746C230.915 123.512 230.638 123.328 230.371 123.104C227.754 120.806 225.451 118.233 223.442 115.403C223.177 115.029 222.933 114.636 222.709 114.232" stroke="#808080" stroke-width="5" stroke-miterlimit="10"/>
<path d="M297.289 216.653L294.902 215.912L294.901 215.914L297.289 216.653ZM275.809 235.833L275.102 233.435L275.064 233.447L275.026 233.459L275.809 235.833ZM215.649 249.203L215.943 251.686L215.943 251.686L215.649 249.203ZM116.795 247.391L116.171 249.812L116.211 249.822L116.252 249.831L116.795 247.391ZM94.4238 239.036L92.9927 241.086L92.9943 241.087L94.4238 239.036ZM117.318 230.201C118.64 230.599 120.035 229.85 120.433 228.528C120.831 227.206 120.082 225.811 118.76 225.413L117.318 230.201ZM293.063 198.389C291.167 200.019 291.167 200.018 291.166 200.018C291.166 200.018 291.166 200.017 291.165 200.017C291.165 200.016 291.164 200.015 291.164 200.015C291.163 200.014 291.163 200.013 291.163 200.013C291.163 200.014 291.165 200.016 291.168 200.02C291.175 200.028 291.188 200.044 291.207 200.067C291.246 200.114 291.308 200.192 291.389 200.297C291.552 200.509 291.791 200.833 292.075 201.256C292.643 202.104 293.376 203.332 294.021 204.831C295.319 207.849 296.185 211.774 294.902 215.912L297.289 216.653L299.677 217.393C301.436 211.724 300.189 206.517 298.614 202.855C297.822 201.014 296.927 199.515 296.228 198.472C295.878 197.949 295.573 197.536 295.351 197.247C295.239 197.102 295.148 196.988 295.081 196.906C295.048 196.865 295.021 196.833 295 196.808C294.99 196.796 294.981 196.786 294.975 196.778C294.971 196.774 294.968 196.77 294.966 196.767C294.964 196.766 294.963 196.764 294.962 196.763C294.962 196.763 294.961 196.762 294.961 196.761C294.96 196.761 294.959 196.76 293.063 198.389ZM297.289 216.653L294.901 215.914C293.577 220.196 290.494 224.045 286.696 227.139C282.904 230.227 278.586 232.409 275.102 233.435L275.809 235.833L276.516 238.231C280.666 237.009 285.571 234.503 289.853 231.015C294.129 227.533 297.969 222.916 299.678 217.391L297.289 216.653ZM275.809 235.833L275.026 233.459C258.548 238.895 238.476 243.981 215.355 246.721L215.649 249.203L215.943 251.686C239.447 248.901 259.848 243.731 276.592 238.208L275.809 235.833ZM215.649 249.203L215.355 246.721C173.029 251.734 142.143 250.477 117.339 244.951L116.795 247.391L116.252 249.831C141.77 255.516 173.255 256.742 215.943 251.686L215.649 249.203ZM116.795 247.391C117.419 244.97 117.419 244.97 117.419 244.97C117.419 244.97 117.419 244.97 117.419 244.97C117.419 244.97 117.418 244.97 117.418 244.97C117.416 244.97 117.414 244.969 117.41 244.968C117.403 244.966 117.392 244.963 117.378 244.96C117.348 244.952 117.303 244.94 117.244 244.925C117.126 244.894 116.951 244.847 116.724 244.786C116.271 244.665 115.615 244.485 114.808 244.257C113.192 243.801 110.98 243.151 108.59 242.375C103.685 240.784 98.4473 238.793 95.8532 236.985L94.4238 239.036L92.9943 241.087C96.2914 243.385 102.239 245.572 107.047 247.131C109.514 247.932 111.79 248.6 113.448 249.069C114.278 249.303 114.955 249.488 115.427 249.615C115.662 249.678 115.846 249.727 115.973 249.76C116.036 249.777 116.084 249.79 116.118 249.798C116.134 249.803 116.147 249.806 116.156 249.808C116.161 249.809 116.164 249.81 116.167 249.811C116.168 249.811 116.169 249.812 116.169 249.812C116.17 249.812 116.17 249.812 116.17 249.812C116.171 249.812 116.171 249.812 116.795 247.391ZM94.4238 239.036L95.8548 236.986C93.7176 235.494 91.9888 231.982 91.166 227.921C90.7706 225.97 90.623 224.066 90.7025 222.491C90.787 220.818 91.11 219.868 91.3409 219.524L89.2661 218.129L87.1912 216.735C86.1905 218.224 85.8073 220.289 85.7089 222.239C85.6056 224.286 85.7987 226.61 86.2655 228.914C87.1671 233.364 89.2488 238.473 92.9927 241.086L94.4238 239.036ZM89.2661 218.129L91.3409 219.524C91.7934 218.851 91.8624 219.074 91.4927 219.137C91.2208 219.183 91.2211 219.035 91.8908 219.404C92.5918 219.79 93.2135 220.243 94.4478 221.007C95.563 221.696 96.9256 222.465 98.5892 223.123L99.5085 220.798L100.428 218.473C99.138 217.963 98.0516 217.356 97.0774 216.754C96.2224 216.225 95.1146 215.471 94.3012 215.023C93.4565 214.558 92.1578 213.953 90.6574 214.207C89.0592 214.478 87.9704 215.576 87.1912 216.735L89.2661 218.129ZM99.5085 220.798L98.5892 223.123C104.197 225.34 104.888 226.458 117.318 230.201L118.039 227.807L118.76 225.413C106.555 221.738 106.634 220.927 100.428 218.473L99.5085 220.798Z" fill="#2C2C2C"/>
<path d="M255.603 122.41C255.603 122.41 268.527 117.416 262.036 105.001C254.257 93.0871 238.64 103.862 235.11 114.892" stroke="#2C2C2C" stroke-width="5" stroke-miterlimit="10"/>
<path d="M76.1424 123.241C76.1424 123.241 78.9836 123.182 79.0957 118.893L79.1311 79.8595C79.1646 78.2399 79.0079 76.6274 78.6006 75.0613C78.288 73.8567 77.8351 72.67 77.2207 72.2811C76.4782 71.7603 75.8023 71.4704 74.8739 71.357C58.9035 68.5053 43.2291 110.113 43.2291 110.113" stroke="#2C2C2C" stroke-width="5" stroke-miterlimit="10"/>
<path d="M70.682 72.0259C70.682 72.0259 63.3821 100.963 61.9508 107.253" stroke="#2C2C2C" stroke-width="5" stroke-miterlimit="10"/>
<path d="M73.4587 119.983C73.4587 119.983 80.9742 125.872 78.7724 130.121C76.5707 134.37 68.3928 129.331 68.3928 129.331C68.3928 129.331 60.3312 133.524 52.1187 130.875C45.1935 128.424 36.9845 123.465 39.6118 114.692C42.4705 105.143 56.1619 106.521 61.515 108.419C66.8681 110.316 71.5776 114.525 73.4587 119.983Z" stroke="#2C2C2C" stroke-width="5" stroke-miterlimit="10"/>
<path d="M142.963 64.8423C138.007 65.2006 128.448 65.7822 112.215 68.5973C103.432 70.1202 98.2615 70.8354 95.161 74.9909C94.0288 76.5147 93.4394 78.5364 93.3981 81.3861C93.2601 90.9151 94.4525 112.845 94.836 116.061C95.2195 119.276 97.0864 122.954 105.464 121.785C113.832 120.616 139.838 114.892 162.975 113.837C186.113 112.782 188.75 111.64 224.042 114.512C224.042 114.512 213.035 83.8294 210.635 78.9841C209.673 77.03 208.658 75.2951 207.131 73.7428C203.139 69.7145 198.113 68.7016 195.382 68.052C182.674 65.0576 167.019 63.8807 160.387 64.0346C155.534 64.1444 147.929 64.4842 142.973 64.8425L142.963 64.8423Z" stroke="#2C2C2C" stroke-width="5" stroke-miterlimit="10"/>
<path d="M285.952 231.052C285.952 231.052 281.911 251.125 269.092 256.51C256.273 261.895 242.078 258.689 242.078 258.689C242.078 258.689 231.947 255.862 226.375 248.4" stroke="#2C2C2C" stroke-width="5" stroke-miterlimit="10"/>
<path d="M262.285 239.061C262.285 239.061 257.748 263.618 231.877 253.832" stroke="#2C2C2C" stroke-width="5" stroke-miterlimit="10"/>
<path d="M121.298 247.998C121.298 247.998 117.469 268.625 97.66 268.428C77.2308 268.222 59.8167 264.239 54.3743 224.326C54.3743 224.326 53.3782 179.177 73.9779 176.585C73.9779 176.585 74.8613 176.358 78.7928 176.975" stroke="#2C2C2C" stroke-width="5" stroke-miterlimit="10"/>
<path d="M104.664 242.618C104.664 242.618 95.2414 280.026 68.4921 259.766" stroke="#2C2C2C" stroke-width="5" stroke-miterlimit="10"/>
<path d="M91.3285 233.912C91.3285 233.912 83.6001 257.913 71.6137 240.317C61.0544 223.622 69.3349 205.7 69.3349 205.7C69.3349 205.7 75.0622 191.432 85.9224 199.09" stroke="#2C2C2C" stroke-width="5" stroke-miterlimit="10"/>
<path d="M51.4487 220.593C51.4487 220.593 45.6414 234.86 32.1537 233.915C18.666 232.969 15.9504 229.19 12.496 219.809C9.00294 209.637 7.44214 191.732 7.81231 177.226C8.18248 162.72 14.1046 152.955 17.7785 154.778" stroke="#2C2C2C" stroke-width="5" stroke-miterlimit="10"/>
<path d="M15.6041 178.516C15.6041 178.516 9.9238 195.756 17.0165 212.19C17.0165 212.19 21.5294 222.377 24.5593 210.669C27.0149 199.944 25.7985 184.505 23.0917 178.735C20.395 172.965 18.0025 171.74 15.6041 178.516Z" stroke="#2C2C2C" stroke-width="5" stroke-miterlimit="10"/>
<path d="M242.098 199.311C217.371 207.208 190.065 210.016 160.653 203.912" stroke="#2C2C2C" stroke-width="5" stroke-miterlimit="10" stroke-linecap="round"/>
<path d="M31.9412 205.729C31.7055 208.876 30.8443 231.736 20.9498 231.282" stroke="#2C2C2C" stroke-width="5" stroke-miterlimit="10"/>
<path d="M89.2777 218.139C89.2777 218.139 84.4566 174.005 73.5586 172.407C62.6606 170.808 54.9662 202.81 53.6438 216.773L52.9016 223.823C38.5415 217.514 31.1919 205.006 31.1919 205.006C24.2779 161.051 22.0181 157.568 16.2945 153.635C10.5709 149.702 6.29932 183.603 6.29932 183.603C3.04179 175.125 1.25453 165.948 6.35679 146.5C11.459 127.052 31.5725 118.673 31.5725 118.673L35.8746 106.134C40.187 93.5748 46.8603 80.2801 56.4739 71.1284C60.652 67.1485 64.6066 64.0955 70.4099 60.4591C98.4174 42.883 134.054 43.3493 158.756 44.1072C173.681 44.5634 200.17 48.9676 211.323 60.5704C222.811 72.5581 235.109 114.891 235.109 114.891C235.109 114.891 274.903 128.719 281.216 142.301C287.096 152.028 293.139 167.047 293.131 184.878C293.113 202.71 290.911 205.568 290.911 205.568C290.911 205.568 286.251 211.042 282.61 213.159" stroke="#2C2C2C" stroke-width="5" stroke-miterlimit="10" stroke-linecap="round"/>
<path d="M132.085 153.654C121.206 153.497 112.22 164.198 112.026 177.566C111.833 190.935 120.495 201.892 131.384 202.049C142.273 202.207 151.249 191.506 151.442 178.137C151.636 164.769 142.974 153.812 132.085 153.654ZM131.42 199.53C122.351 199.398 114.185 189.839 114.353 178.2C114.522 166.561 122.95 158.093 132.019 158.224C141.088 158.356 147.018 167.032 146.85 178.671C146.681 190.31 140.489 199.661 131.42 199.53Z" fill="#8AC155"/>
<path d="M259.858 146.934C249.819 146.789 241.534 156.74 241.354 169.149C241.174 181.557 249.168 191.744 259.207 191.89C269.245 192.035 277.53 182.084 277.71 169.675C277.89 157.267 269.897 147.08 259.858 146.934ZM259.24 189.56C250.871 189.439 243.335 180.528 243.492 169.68C243.65 158.831 251.429 150.953 259.798 151.074C268.167 151.196 273.646 159.265 273.489 170.114C273.332 180.963 267.609 189.681 259.24 189.56Z" fill="#8AC155"/>
<path d="M131.32 204.409C119.161 204.232 109.485 192.171 109.698 177.463C109.911 162.754 119.933 150.978 132.092 151.154C144.25 151.33 153.927 163.392 153.714 178.1C153.501 192.809 143.479 204.585 131.32 204.409Z" stroke="#2C2C2C" stroke-width="5" stroke-miterlimit="10"/>
<path d="M259.231 194.302C247.862 194.137 238.814 182.885 239.013 169.166C239.212 155.447 248.582 144.462 259.951 144.627C271.32 144.791 280.368 156.044 280.169 169.762C279.97 183.481 270.6 194.466 259.231 194.302Z" stroke="#2C2C2C" stroke-width="5" stroke-miterlimit="10"/>
<path d="M124.68 192.34C121.54 192.34 119 188.68 119 184.17C119 179.66 121.54 176 124.68 176C127.82 176 130.36 179.66 130.36 184.17C130.36 188.68 127.82 192.34 124.68 192.34Z" fill="#2C2C2C"/>
<path d="M252.23 181.34C249.34 181.34 247 177.91 247 173.67C247 169.43 249.34 166 252.23 166C255.12 166 257.46 169.43 257.46 173.67C257.46 177.91 255.12 181.34 252.23 181.34Z" fill="#2C2C2C"/>
<path d="M89.283 55.5994C84.6891 34.2574 78.421 21.0235 66.2344 6.99854" stroke="#2C2C2C" stroke-width="5"/>
<path d="M91.283 55.6267C86.6891 34.2847 80.421 21.0508 68.2344 7.02588" stroke="#373737" stroke-width="2"/>
<path d="M90.1856 60.9788C92.6706 61.0148 94.7143 59.0295 94.7503 56.5445C94.7863 54.0594 92.801 52.0157 90.3159 51.9797C87.8309 51.9437 85.7872 53.9291 85.7512 56.4141C85.7152 58.8991 87.7005 60.9428 90.1856 60.9788Z" fill="#2C2C2C"/>
<path d="M64.9991 10.107C67.7603 10.147 70.0311 7.94111 70.0711 5.17998C70.1111 2.41884 67.9051 0.148074 65.144 0.108073C62.3829 0.0680719 60.1121 2.27399 60.0721 5.03512C60.0321 7.79625 62.238 10.067 64.9991 10.107Z" fill="#2C2C2C"/>
<path d="M65.2143 0.0587958C68.014 0.0993558 70.2508 2.402 70.2103 5.20171C70.1854 6.92153 69.3034 8.42891 67.9702 9.32969C68.5521 8.51803 68.9065 7.52306 68.922 6.45318C68.9626 3.65347 66.7257 1.35083 63.926 1.31027C62.8561 1.29477 61.8513 1.62024 61.0231 2.17831C61.962 0.881771 63.4943 0.0438793 65.2141 0.0687947L65.2143 0.0587958Z" fill="#373737"/>
<path d="M91.365 51.9973C93.8063 52.6128 95.2806 55.0844 94.6754 57.5159C94.3037 59.0107 93.217 60.155 91.8794 60.6657C92.5581 60.0755 93.0696 59.2828 93.3032 58.3461C93.9186 55.9048 92.4343 53.433 89.9928 52.8276C89.0561 52.594 88.1149 52.6703 87.2702 52.9881C88.354 52.0437 89.8702 51.6257 91.375 51.9975L91.365 51.9973Z" fill="#373737"/>
<defs>
<filter id="filter0_f_1138_7221" x="6.69141" y="203" width="269.037" height="87.5742" filterUnits="userSpaceOnUse" color-interpolation-filters="sRGB">
<feFlood flood-opacity="0" result="BackgroundImageFix"/>
<feBlend mode="normal" in="SourceGraphic" in2="BackgroundImageFix" result="shape"/>
<feGaussianBlur stdDeviation="9.5" result="effect1_foregroundBlur_1138_7221"/>
</filter>
</defs>
</svg>
