<svg width="302" height="291" viewBox="0 0 302 291" fill="none" xmlns="http://www.w3.org/2000/svg">
<g filter="url(#filter0_f_1138_8154)">
<path d="M83.1301 270.308L30.1019 238.734C22.2452 234.055 25.5624 222.001 34.7063 222.001L208.108 222C209.762 222 211.384 222.456 212.796 223.318L252.411 247.494C259.943 252.09 257.036 263.622 248.225 264.078C189.043 267.139 155.687 267.702 88.2853 271.559C86.4907 271.662 84.6746 271.228 83.1301 270.308Z" fill="black" fill-opacity="0.2"/>
</g>
<path d="M236.092 114.177L213.704 62.7769L204.13 54.6873L187.162 48.2408L155.998 42.7188L129.351 45.0831L98.1247 49.4512L78.356 55.4355L66.7881 63.4887L59.9557 69.8204L46.3589 83.995L37.6647 97.3404L33.5933 111.903L31.8834 118.789L21.9299 123.785L12.1351 134.404L6.5198 145.084C6.5198 145.084 2.71824 158.281 2.62782 158.999C2.5374 159.718 3.39231 172.502 3.39231 172.502L5.85035 180.248L7.9011 171.927L11.9748 157.205L15.5673 152.916L22.0303 161.041L24.7409 173.441L30.0579 194.4L31.1942 205.018L39.7909 215.664L52.4173 222.217L56.6235 198.346L62.8444 179.004L70.162 173.009L77.5442 173.596L80.3083 182.307L83.4086 189.903L86.7568 202.483L87.9047 212.3L88.9578 217.616L89.3646 228.193L102.169 242.46L121.532 247.241L153.813 252.929L171.842 250.35L205.76 250.041L237.631 245.363L275.835 235.715L290.103 226.281L297.468 217.066L297.31 205.823L294.021 199.515L291.714 192.42L292.844 180.706L288.971 159.447L281.184 142.633L271.216 132.047L253.519 122.79L259.269 119.343L263.407 110.572L257.913 101.821L250.227 100.1L240.01 106.703L236.041 114.196L236.061 114.196L236.092 114.177Z" fill="#959595"/>
<path d="M105.032 242.252L99.2973 255.66L90.5396 260.964L80.5718 266.95L69.0863 261.723L59.6842 245.925L54.7197 222.731L56.6431 198.346L65.2618 177.099L70.1818 172.99L79.2338 177.061L86.7766 202.463L88.0819 214.533L88.7406 218.773L89.3643 228.183L94.4582 239.688L105.022 242.251L105.032 242.252Z" fill="#3D3D3D"/>
<path d="M284.986 231.607L282.179 242.418L273.349 253.371L260.733 259.219L246.087 259.547L246.316 256.84L255.073 250.946L261.44 243.567L263.189 239.492L284.986 231.607Z" fill="#3D3D3D"/>
<path d="M19.3509 156.09L24.7603 173.43L27.1108 185.836L29.0817 199.596C29.7828 202.286 30.4941 204.967 31.1952 207.657C31.2843 210.479 31.2654 217.309 28.5021 223.73C28.5021 223.73 26.5978 228.153 22.1021 231.968C21.8388 232.194 21.5073 232.289 21.1246 232.474C19.9061 233.056 13.5655 222.003 13.5655 222.003L8.06888 202.402L7.70139 178.064L10.3729 160.031L17.6859 154.356L19.3512 156.07L19.3612 156.07L19.3509 156.09Z" fill="#3D3D3D"/>
<path d="M74.5331 173.704L74.7197 175.317L69.8462 176.906L68.8588 175.342L72.5563 173.465L74.5331 173.704Z" fill="#2C2C2C"/>
<path d="M193.16 65.5698C191.693 67.4488 193.248 67.1013 190.855 67.2766C180.965 67.2434 167.342 65.2358 157.641 65.2553C142.909 65.982 122.695 68.1494 108.277 69.2906C105.674 69.5229 103.01 69.7744 100.527 69.2484C96.7824 68.8541 91.8078 63.6115 95.9824 61.2517C105.482 57.1989 134.685 53.0615 159.016 53.874C163.015 53.942 168.609 54.413 172.223 54.8654C179.441 55.7701 183.322 56.3664 189.817 58.1306C192.686 58.9723 194.18 62.1043 193.191 65.5003L193.15 65.5697L193.16 65.5698Z" fill="#A7A7A7"/>
<path d="M210.415 122.634C188.132 121.991 170.697 122.269 148.267 125.514C144.256 126.266 135.417 126.798 139.79 132.882C142.453 136.791 145.797 140.71 148.732 144.523C157.479 155.841 166.547 161.563 181.039 162.883C194.241 164.244 215.78 165.186 225.488 155.686C232.711 147.98 232.016 135.888 224.928 128.105C221.253 124.291 215.761 122.951 210.615 122.657L210.425 122.654L210.415 122.634Z" fill="#A7A7A7"/>
<path d="M265.379 145.653L275.048 153.364L280.563 164.795L280.101 174.569L276.157 185.863L268.177 192.058L255.203 195.02L246.469 188.273L238.494 172.696L242.53 155.083L256.888 144.25L265.379 145.633L265.379 145.653Z" fill="#CAF698"/>
<path d="M146.123 156.926L151.274 167.232L153.034 182.439L149.95 189.645L143.546 198.133L130.585 202.236L119.064 198.779L110.976 186.12L109.9 169.283L116.036 156.5L125.362 152.015L137.945 151.207L146.123 156.926Z" fill="#CAF698"/>
<path d="M79.3833 246.209C82.9495 251.331 86.7445 242.035 89.5433 236.615C91.7997 232.737 88.2316 213.253 87.5947 208.894C86.7663 205.321 86.1835 202.063 84.1367 199.063C82.8002 197.433 76.514 199.192 74.695 200.496C71.9653 202.527 70.8911 208.332 69.7011 212.465C68.1529 217.853 67.8244 235 69.8664 240.4L79.3831 246.219L79.3833 246.209Z" fill="#4E4E4E"/>
<path d="M13.8999 185.804C13.7983 207.315 18.7855 214.448 20.6979 215.676C22.9472 217.118 25.7692 203.198 25.5216 193.363C28.1768 191.641 25.9175 182.608 21.4182 177.002C20.5832 175.96 19.001 174.027 17.6758 174.377C16.8024 174.605 16.5967 175.692 14.926 181.248C13.9068 184.634 13.7516 184.992 13.8998 185.814L13.8999 185.804Z" fill="#4E4E4E"/>
<path d="M79.6446 129.42C85.3902 132.523 88.8292 134.694 91.0482 136.156C102.104 143.437 110.114 151.054 115.383 156.69L109.422 169.135L109.04 181.741L114.98 192.818L119.387 199.283L127.768 202.735L144.186 197.432L148.319 188.981L151.311 181.964C151.311 181.964 194.283 204.908 241.077 179.404L244.632 188.766L255.638 193.986L269.304 192.974L277.426 186.661L280.759 172.658L281.907 165.204L277.952 138.644L288.671 152.61L292.095 170.972C291.68 173.356 291.276 175.74 290.871 178.125C290.401 180.878 288.835 185.436 286.092 190.477C282.065 197.839 277.159 202.329 274.261 204.917C269.043 209.602 263.604 212.963 257.339 215.973C251.911 218.575 234.486 226.393 207.905 228.338C192.357 229.473 176.838 229.968 165.886 228.69C148.254 226.634 144.698 224.932 141.21 224.092C121.826 219.39 109.344 212.549 102.012 202.232C98.7973 197.715 96.2368 190.827 96.2368 190.827C93.3809 185.005 92.5087 178.241 86.4286 165.092C85.8951 163.944 84.9347 161.9 83.229 159.515C82.5234 158.515 80.2479 155.431 76.6479 152.639C71.6735 148.766 66.7253 147.225 63.8846 146.563C57.9506 144.727 46.5171 142.811 40.5831 140.975C26.3686 134.279 18.4918 135.385 13.8249 137.207C12.7889 137.612 10.6565 139.142 10.274 138.626C9.33217 137.362 18.5932 127.695 26.363 120.857C27.4038 119.432 28.5958 117.919 29.9584 116.369C31.0973 115.075 32.2243 113.911 33.3095 112.867C40.0117 116.214 47.7433 119.617 56.4693 122.713C64.7874 125.664 72.5771 127.817 79.6148 129.409L79.6446 129.42Z" fill="#878787"/>
<path opacity="0.42" d="M63.4155 132.697C60.5906 135.087 57.9833 139.019 59.1497 142.727C61.2395 146.897 66.0684 144.247 67.9421 141.244C70.1173 138.145 72.7464 134.773 75.6749 132.135C78.9166 128.591 85.3339 126.064 85.8141 120.531C85.8747 109.44 85.9755 98.3406 86.1369 87.2017C86.2134 81.9223 85.9632 75.718 83.7994 70.4461C79.4014 60.6114 67.1175 67.0041 60.6318 72.1807C51.3038 79.5664 45.3328 87.8807 41.9123 98.9323C40.6436 102.974 39.4341 107.077 38.2361 111.07C38.068 111.628 37.8766 112.415 38.0001 112.867C38.38 114.253 44.9606 109.428 46.3538 109.218C49.1807 108.069 51.8442 108.537 54.5324 108.686C56.3822 108.713 58.2357 108.48 60.4769 109.102C62.13 109.596 63.8733 110.072 65.3102 110.983C67.1603 112.369 69.5957 114.775 71.5413 116.473C73.3191 118.019 74.2486 119.443 75.7974 121.606C77.2548 123.867 78.8967 125.821 78.5579 128.496C78.3517 129.613 78.0131 130.899 76.9458 131.393C72.7175 131.932 67.2981 129.093 63.5872 132.58L63.4253 132.708L63.4155 132.697Z" fill="#6F6F6F"/>
<path d="M4.21289 151.022C5.22955 143.666 11.2671 135.592 19.7103 135.434C23.2647 135.156 26.0041 135.906 29.5209 136.847C34.6315 138.221 39.699 139.814 44.7206 141.117C55.7402 143.987 67.6134 145.919 76.9318 153.005C81.9826 156.439 84.5254 161.096 86.9789 166.392C94.2623 181.399 95.6984 194.101 103.211 202.931C114.203 216.022 136.69 223.288 152.026 226.411C165.352 228.884 178.479 228.914 191.135 228.587C203.791 228.261 211.474 227.412 223.682 225.558C235.89 223.705 249.867 220.867 262.192 212.985C267.228 209.858 271.78 206.303 275.889 202.272C279.532 198.645 284.12 193.971 287.542 186.93C289.149 183.723 290.434 179.961 291.213 176.592C291.799 174.09 292.051 171.843 292.207 172.186C292.795 178.535 293.478 188.676 293.649 194.099C292.963 197.999 291.232 202.145 289.738 205.863C287.756 209.435 283.766 211.487 281.723 215.158C280.415 217.1 278.677 219.655 277.38 221.516C276.534 222.614 276.379 222.982 275.405 223.268C267.362 224.771 225.783 234.11 208.514 237.31C202.999 237.66 181.11 240.193 174.704 240.551C162.96 240.051 136.757 242.151 130.08 241.854C127.602 241.739 126.645 240.815 123.85 239.744C115.531 236.183 97.2321 228.377 92.7497 226.442C90.3538 225.447 90.401 222.188 89.4642 219.894C86.0206 210.453 85.8713 200.05 83.1493 190.499C81.8048 186.659 80.1717 179.955 78.3958 176.209C75.8756 172.752 70.1825 172.239 66.8057 174.751C64.7345 176.201 63.731 179.197 62.6792 181.382C59.6289 188.978 56.7343 201.008 53.7396 210.285C52.4296 213.727 53.6691 218.605 53.2518 221.869C52.9566 223.605 51.8509 222.299 50.2176 221.825C48.6052 221.292 46.2306 217.757 44.4987 217.182C41.1076 215.853 37.2689 215.737 35.7122 212.044C34.0937 209.171 32.263 205.754 30.7037 202.931C29.7087 201.196 29.2853 200.05 29.052 198.206C28.4617 194.077 26.8552 182.783 25.9836 176.67C25.5689 174.233 25.6312 172.694 24.681 170.63C23.0698 167.246 20.7699 162.393 19.0211 158.847C17.4969 155.675 15.4287 154.154 12.4996 157.522C9.00969 161.632 8.9803 167.112 7.5583 172.072C6.30484 176.445 2.76405 177.163 3.11254 173.128C3.3064 165.96 2.94509 157.764 4.20086 151.161L4.22303 151.012L4.21289 151.022Z" fill="#6B6B6B"/>
<path d="M261.4 106.124C257.127 114.643 248.324 116.816 240.604 110.533C239.9 110.113 239.159 108.832 238.311 109.36C237.765 109.752 236.98 111.491 236.454 112.573C236.278 112.991 236.081 113.478 236.245 113.91C237.076 115.213 239.615 116.679 240.824 117.447C243.47 118.465 247.036 119.447 249.773 120.377C251.097 120.816 251.95 121.269 253.381 121.899C254.931 122.592 255.941 123.307 257.202 121.865C259.153 119.713 262.22 117.877 263.16 115.13C263.43 114.444 263.7 113.748 263.98 113.052C264.368 111.847 265.296 110.581 264.503 109.409C263.855 108.59 262.375 106.488 261.461 106.105L261.401 106.104L261.4 106.124Z" fill="#6B6B6B"/>
<path d="M66.9862 112.595C66.5563 113.969 67.556 116.063 66.9587 117.945C65.7394 122.028 58.825 122.288 55.5073 121.409C51.105 120.155 48.4144 118.106 45.6062 114.515C43.2297 111.491 46.2536 107.104 40.5502 114.202C37.0975 118.502 38.9624 125.77 44.0263 128.304C49.8323 130.688 55.9424 132.797 62.3265 131.869C65.5688 131.046 68.885 129.954 72.1872 131.202C74.1893 131.761 77.2381 131.865 78.6316 130.255C80.9411 126.858 74.3432 121.832 72.4197 119.294C70.8735 117.642 68.8246 113.411 67.3873 112.521C67.2582 112.459 67.1184 112.447 67.0169 112.545L66.9864 112.585L66.9862 112.595Z" fill="#6B6B6B"/>
<path opacity="0.74" d="M208.12 74.0187L213.941 87.8345L220.418 106.72L222.719 114.224L211.387 114.3L188.354 112.276L162.789 113.836L133.836 116.547L106.299 121.689L99.3235 120.628L95.0323 117.915L93.3294 102.229L93.1026 77.153L98.7047 72.9037L115.636 68.8085L152.706 63.5249L180.097 67.1021L193.752 68.26L203.131 69.116L208.12 74.0088L208.12 74.0187Z" fill="#424242"/>
<path opacity="0.74" d="M78.3848 120.423L79.6036 110.16L80.367 87.1482L77.6991 73.1781L72.5581 71.8335L68.7805 73.709L61.6359 79.4961L56.3887 84.1006L46.8744 98.1342L43.0828 108.57L52.5456 109.138L60.0471 108.396L67.1823 110.85L72.2644 114.884L74.6777 118.129L75.4857 121.031L78.3847 120.433L78.3848 120.423Z" fill="#424242"/>
<path d="M293.961 201.664C292.605 202.044 291.146 203.323 289.481 205.049C284.434 210.307 277.072 215.931 270.12 219.49C261.04 224.249 250.459 227.396 240.63 229.304C230.049 231.381 217.317 233.537 206.554 234.311C195.231 235.127 171.076 236.327 141.328 233.896C128.172 232.815 115.87 226.667 103.355 222.055C99.6843 220.711 96.7806 216.119 93.316 216.409C89.2496 216.82 87.3427 222.113 88.1185 225.864C88.7273 229.404 91.5528 236.635 94.487 239.128C96.2555 240.624 98.1766 241.942 100.15 243.121C106.645 246.935 117.502 247.922 125.463 250.008C134.408 251.798 143.314 252.807 152.213 252.936C160.219 253.282 176.428 252.066 185.853 252.463C191.4 252.743 190.539 252.791 195.811 251.997C209.834 249.85 226.974 248.558 241.064 245.262C246.664 243.913 252.515 242.478 258.155 241.119C263.566 239.727 268.428 238.908 273.349 236.819C278.111 234.638 282.671 231.923 287.504 228.983C292.194 226.241 295.251 221.644 296.776 216.486C298.165 212.406 300.261 200.335 294.081 201.635L293.981 201.664L293.961 201.664Z" fill="#5E5E5E"/>
<path d="M261.495 239.709L258.723 248.1L249.212 255.673L239.069 257.216L233.335 254.003L226.207 246.919L261.485 239.719L261.495 239.709Z" fill="#2C2C2C"/>
<path d="M122.364 247.853L119.047 255.196L112.296 262.809L107.206 266.916L94.1116 269.196L86.4699 264.425L93.4563 262.656L98.3759 255.127L103.344 244.918L109.131 244.471L122.363 247.873L122.364 247.853Z" fill="#2C2C2C"/>
<path d="M31.3803 205.95C31.3632 209.891 31.0064 213.116 30.6527 215.441C30.1002 219.063 29.4936 220.895 29.2745 221.522C28.5439 223.631 27.7932 225.741 25.9728 227.824C24.4374 229.572 22.7626 230.578 21.6643 231.142C23.595 231.8 25.5158 232.448 27.4466 233.096L39.4323 233.48L49.9416 226.011L51.4403 220.593L31.3703 205.95L31.3803 205.95Z" fill="#2C2C2C"/>
<path d="M298.454 210.341C297.081 222.322 289.44 228.502 279.283 233.725C274.04 236.67 265.828 238.141 259.191 239.995C248.713 242.503 238.602 245.987 228.153 247.186C218.033 248.47 202.703 251.128 191 252.618C185.961 253.256 184.35 252.632 178.618 252.729C170.225 252.878 159.78 251.746 151.487 251.876C143.521 252.251 138.527 251.818 130.828 250.287C123.698 248.843 116.96 248.656 110.196 246.137C102.506 243.346 93.5681 241.036 90.5273 232.781C89.0922 228.98 86.2783 224.399 87.3004 222.193C89.0552 219.798 95.4553 227.432 97.0756 228.805C100.464 231.695 104.893 233.849 108.47 235.481C112.314 237.297 117.113 238.807 121.488 239.89C143.543 245.2 164.221 244.09 186.46 242.962C209.068 241.889 226.755 239.485 248.791 234.374C261.773 231.541 276.707 227.227 287.248 218.299C289.06 216.805 290.725 215.079 292.231 213.311C293.754 211.683 298.916 204.687 298.456 210.201L298.454 210.331L298.454 210.341Z" fill="#4E4E4E"/>
<path d="M53.0551 212.717C53.0551 212.717 44.634 205.824 38.7588 200.619C38.1664 200.09 37.1527 198.265 35.2957 191.148C32.9456 182.163 32.1891 175.011 31.9629 172.677C31.3969 166.869 30.901 161.751 31.5315 154.819C32.0075 149.576 32.4712 144.492 35.1484 138.49C37.5884 132.985 40.825 129.101 43.1601 126.695" stroke="#535353" stroke-width="5" stroke-miterlimit="10"/>
<path d="M142.477 155.226C142.477 155.226 139.118 146.136 127.073 137.421C121.719 133.543 116.616 130.969 112.589 129.31C106.167 126.657 105.092 126.331 99.9082 121.696" stroke="#808080" stroke-width="5" stroke-miterlimit="10"/>
<path d="M242.722 155.586C243.114 145.111 242.685 141.554 237.994 132.635C235.571 128.02 233.235 125.655 231.172 123.745C230.915 123.512 230.638 123.328 230.371 123.104C227.754 120.806 225.451 118.232 223.442 115.403C223.177 115.029 222.933 114.635 222.709 114.232" stroke="#808080" stroke-width="5" stroke-miterlimit="10"/>
<path d="M297.293 216.652L294.905 215.911L294.905 215.913L297.293 216.652ZM275.813 235.833L275.106 233.435L275.068 233.446L275.03 233.459L275.813 235.833ZM215.653 249.203L215.947 251.685L215.947 251.685L215.653 249.203ZM116.799 247.391L116.175 249.811L116.215 249.822L116.255 249.831L116.799 247.391ZM94.4277 239.036L92.9966 241.085L92.9982 241.087L94.4277 239.036ZM117.322 230.2C118.644 230.598 120.039 229.849 120.437 228.527C120.835 227.205 120.086 225.811 118.764 225.413L117.322 230.2ZM293.067 198.389C291.171 200.018 291.171 200.018 291.17 200.017C291.17 200.017 291.17 200.016 291.169 200.016C291.169 200.015 291.168 200.015 291.168 200.014C291.167 200.013 291.167 200.013 291.167 200.013C291.167 200.013 291.169 200.015 291.172 200.019C291.179 200.027 291.192 200.043 291.211 200.067C291.25 200.114 291.312 200.191 291.393 200.297C291.556 200.508 291.795 200.832 292.079 201.255C292.647 202.104 293.38 203.332 294.025 204.831C295.323 207.849 296.189 211.773 294.905 215.911L297.293 216.652L299.681 217.393C301.44 211.724 300.193 206.517 298.618 202.855C297.826 201.014 296.931 199.515 296.232 198.472C295.882 197.948 295.577 197.535 295.354 197.246C295.243 197.101 295.152 196.987 295.085 196.906C295.052 196.865 295.025 196.832 295.004 196.808C294.994 196.795 294.985 196.785 294.978 196.777C294.975 196.773 294.972 196.77 294.97 196.767C294.968 196.765 294.967 196.764 294.966 196.762C294.966 196.762 294.965 196.761 294.965 196.761C294.964 196.76 294.963 196.759 293.067 198.389ZM297.293 216.652L294.905 215.913C293.581 220.195 290.498 224.044 286.7 227.138C282.908 230.226 278.59 232.408 275.106 233.435L275.813 235.833L276.52 238.231C280.669 237.008 285.575 234.503 289.857 231.015C294.133 227.532 297.973 222.916 299.682 217.39L297.293 216.652ZM275.813 235.833L275.03 233.459C258.552 238.895 238.48 243.98 215.359 246.72L215.653 249.203L215.947 251.685C239.451 248.9 259.852 243.731 276.596 238.207L275.813 235.833ZM215.653 249.203L215.359 246.72C173.033 251.733 142.147 250.476 117.343 244.95L116.799 247.391L116.255 249.831C141.774 255.515 173.259 256.742 215.947 251.685L215.653 249.203ZM116.799 247.391C117.423 244.97 117.423 244.97 117.423 244.97C117.423 244.97 117.423 244.97 117.423 244.97C117.423 244.97 117.422 244.969 117.422 244.969C117.42 244.969 117.418 244.968 117.414 244.967C117.407 244.966 117.396 244.963 117.381 244.959C117.352 244.951 117.307 244.94 117.248 244.924C117.13 244.893 116.955 244.846 116.728 244.786C116.275 244.664 115.619 244.485 114.812 244.257C113.196 243.8 110.984 243.15 108.594 242.375C103.689 240.784 98.4512 238.792 95.8571 236.985L94.4277 239.036L92.9982 241.087C96.2953 243.384 102.243 245.571 107.051 247.131C109.518 247.931 111.794 248.6 113.452 249.068C114.282 249.303 114.959 249.488 115.43 249.614C115.666 249.678 115.85 249.726 115.977 249.76C116.04 249.776 116.088 249.789 116.122 249.798C116.138 249.802 116.151 249.805 116.16 249.808C116.164 249.809 116.168 249.81 116.17 249.81C116.172 249.811 116.173 249.811 116.173 249.811C116.174 249.811 116.174 249.811 116.174 249.811C116.175 249.811 116.175 249.811 116.799 247.391ZM94.4277 239.036L95.8587 236.986C93.7215 235.494 91.9927 231.981 91.1699 227.92C90.7745 225.969 90.6269 224.065 90.7064 222.49C90.7909 220.817 91.1139 219.867 91.3448 219.523L89.27 218.129L87.1952 216.734C86.1944 218.223 85.8112 220.289 85.7128 222.238C85.6095 224.285 85.8026 226.609 86.2694 228.913C87.171 233.363 89.2527 238.472 92.9966 241.085L94.4277 239.036ZM89.27 218.129L91.3448 219.523C91.7973 218.85 91.8663 219.073 91.4966 219.136C91.2247 219.182 91.225 219.035 91.8947 219.403C92.5957 219.789 93.2174 220.243 94.4517 221.006C95.5669 221.695 96.9295 222.464 98.5931 223.122L99.5124 220.797L100.432 218.472C99.1419 217.962 98.0555 217.356 97.0813 216.753C96.2263 216.225 95.1185 215.47 94.3051 215.022C93.4605 214.558 92.1617 213.952 90.6613 214.206C89.0631 214.477 87.9743 215.575 87.1952 216.734L89.27 218.129ZM99.5124 220.797L98.5931 223.122C104.201 225.34 104.892 226.458 117.322 230.2L118.043 227.806L118.764 225.413C106.559 221.738 106.638 220.927 100.432 218.472L99.5124 220.797Z" fill="#2C2C2C"/>
<path d="M255.605 122.409C255.605 122.409 268.528 117.416 262.038 105C254.259 93.0864 238.642 103.861 235.112 114.891" stroke="#2C2C2C" stroke-width="5" stroke-miterlimit="10"/>
<path d="M76.1424 123.24C76.1424 123.24 78.9836 123.181 79.0957 118.892L79.1311 79.8589C79.1646 78.2392 79.0079 76.6267 78.6006 75.0607C78.288 73.856 77.8351 72.6693 77.2207 72.2804C76.4782 71.7596 75.8023 71.4698 74.8739 71.3563C58.9035 68.5047 43.2291 110.112 43.2291 110.112" stroke="#2C2C2C" stroke-width="5" stroke-miterlimit="10"/>
<path d="M70.684 72.0252C70.684 72.0252 63.384 100.962 61.9528 107.252" stroke="#2C2C2C" stroke-width="5" stroke-miterlimit="10"/>
<path d="M73.4607 119.982C73.4607 119.982 80.9762 125.872 78.7744 130.12C76.5726 134.369 68.3947 129.33 68.3947 129.33C68.3947 129.33 60.3332 133.524 52.1207 130.874C45.1954 128.424 36.9864 123.464 39.6138 114.691C42.4724 105.142 56.1639 106.52 61.5169 108.418C66.87 110.316 71.5795 114.524 73.4607 119.982Z" stroke="#2C2C2C" stroke-width="5" stroke-miterlimit="10"/>
<path d="M142.967 64.8417C138.011 65.2 128.452 65.7816 112.219 68.5967C103.436 70.1196 98.2654 70.8348 95.1649 74.9903C94.0327 76.5141 93.4433 78.5358 93.402 81.3855C93.264 90.9145 94.4564 112.844 94.8399 116.06C95.2234 119.276 97.0903 122.953 105.468 121.784C113.836 120.616 139.842 114.892 162.979 113.837C186.117 112.782 188.754 111.64 224.046 114.511C224.046 114.511 213.039 83.8288 210.639 78.9835C209.677 77.0293 208.662 75.2945 207.135 73.7422C203.143 69.7139 198.117 68.701 195.386 68.0514C182.678 65.057 167.023 63.8801 160.39 64.034C155.538 64.1438 147.933 64.4836 142.977 64.8419L142.967 64.8417Z" stroke="#2C2C2C" stroke-width="5" stroke-miterlimit="10"/>
<path d="M285.954 231.051C285.954 231.051 281.913 251.124 269.094 256.509C256.275 261.894 242.079 258.688 242.079 258.688C242.079 258.688 231.949 255.861 226.377 248.4" stroke="#2C2C2C" stroke-width="5" stroke-miterlimit="10"/>
<path d="M262.285 239.06C262.285 239.06 257.748 263.617 231.877 253.831" stroke="#2C2C2C" stroke-width="5" stroke-miterlimit="10"/>
<path d="M121.3 247.997C121.3 247.997 117.471 268.624 97.6619 268.427C77.2328 268.221 59.8186 264.238 54.3762 224.325C54.3762 224.325 53.3801 179.176 73.9798 176.584C73.9798 176.584 74.8632 176.357 78.7947 176.974" stroke="#2C2C2C" stroke-width="5" stroke-miterlimit="10"/>
<path d="M104.666 242.617C104.666 242.617 95.2434 280.025 68.494 259.765" stroke="#2C2C2C" stroke-width="5" stroke-miterlimit="10"/>
<path d="M91.3324 233.911C91.3324 233.911 83.604 257.912 71.6176 240.316C61.0583 223.622 69.3388 205.7 69.3388 205.7C69.3388 205.7 75.0661 191.431 85.9263 199.089" stroke="#2C2C2C" stroke-width="5" stroke-miterlimit="10"/>
<path d="M51.4506 220.592C51.4506 220.592 45.6434 234.86 32.1556 233.914C18.6679 232.969 15.9524 229.189 12.4979 219.808C9.0049 209.636 7.44409 191.732 7.81426 177.226C8.18444 162.719 14.1065 152.954 17.7805 154.778" stroke="#2C2C2C" stroke-width="5" stroke-miterlimit="10"/>
<path d="M15.6061 178.518C15.6061 178.518 9.92576 195.758 17.0184 212.192C17.0184 212.192 21.5314 222.379 24.5613 210.671C27.0169 199.946 25.8004 184.507 23.0937 178.737C20.397 172.967 18.0045 171.742 15.6061 178.518Z" stroke="#2C2C2C" stroke-width="5" stroke-miterlimit="10"/>
<path d="M31.9431 205.728C31.7075 208.875 30.8463 231.735 20.9518 231.282" stroke="#2C2C2C" stroke-width="5" stroke-miterlimit="10"/>
<path d="M89.2797 218.14C89.2797 218.14 84.4585 174.005 73.5605 172.407C62.6625 170.809 54.9682 202.811 53.6458 216.773L52.9036 223.823C38.5434 217.515 31.1938 205.007 31.1938 205.007C24.2798 161.052 22.0201 157.569 16.2964 153.636C10.5728 149.702 6.30127 183.604 6.30127 183.604C3.04374 175.126 1.25649 165.949 6.35874 146.501C11.461 127.053 31.5745 118.673 31.5745 118.673L35.8766 106.134C40.189 93.5754 46.8622 80.2806 56.4758 71.1289C60.6539 67.1491 64.6085 64.096 70.4118 60.4597C98.4194 42.8836 134.056 43.3498 158.758 44.1077C173.683 44.564 200.172 48.9682 211.325 60.5709C222.813 72.5586 235.111 114.891 235.111 114.891C235.111 114.891 274.905 128.719 281.218 142.302C287.098 152.028 293.141 167.047 293.133 184.879C293.115 202.711 290.913 205.569 290.913 205.569C290.913 205.569 286.253 211.042 282.612 213.16" stroke="#2C2C2C" stroke-width="5" stroke-miterlimit="10" stroke-linecap="round"/>
<path d="M132.089 153.654C121.21 153.496 112.224 164.197 112.03 177.566C111.837 190.934 120.499 201.891 131.388 202.049C142.277 202.206 151.252 191.505 151.446 178.137C151.64 164.768 142.978 153.812 132.089 153.654ZM131.424 199.529C122.355 199.398 114.188 189.838 114.357 178.2C114.526 166.561 122.954 158.092 132.023 158.224C141.092 158.355 147.022 167.032 146.854 178.67C146.685 190.309 140.493 199.66 131.424 199.529Z" fill="#8AC155"/>
<path d="M259.86 146.934C249.821 146.788 241.536 156.739 241.356 169.148C241.176 181.557 249.17 191.743 259.208 191.889C269.247 192.034 277.532 182.083 277.712 169.675C277.892 157.266 269.899 147.079 259.86 146.934ZM259.242 189.559C250.873 189.438 243.337 180.528 243.494 169.679C243.651 158.83 251.431 150.952 259.8 151.074C268.169 151.195 273.648 159.265 273.491 170.113C273.334 180.962 267.611 189.68 259.242 189.559Z" fill="#8AC155"/>
<path d="M273.002 184.499C262.502 186.503 258.002 186.503 246.502 184.999C248.502 187.503 251.002 191.999 260.241 191.999C266.002 191.999 270.502 187.503 273.002 184.499Z" fill="#878787"/>
<path d="M277.245 159.785C265.047 158.344 255.302 157.908 241.617 159.773C240.877 159.873 240.302 159.172 240.618 158.496C242.693 154.063 248.861 145.001 260.281 145.001C269.272 145.001 274.403 150.382 278.26 158.394C278.597 159.094 278.017 159.876 277.245 159.785Z" fill="#878787" stroke="#2C2C2C" stroke-width="4"/>
<path d="M147 194.004C135.113 196.142 130.019 196.142 117 194.537C119.264 197.208 122.094 202.004 132.554 202.004C139.076 202.004 144.17 197.208 147 194.004Z" fill="#878787"/>
<path d="M151.002 167.002C137.819 165.335 126.833 164.779 112.002 167.002C113.101 163.668 119.143 152.002 131.776 152.002C141.115 152.002 147.157 158.113 151.002 167.002Z" fill="#878787" stroke="#2C2C2C" stroke-width="4"/>
<path d="M259.233 194.303C247.864 194.138 238.816 182.886 239.015 169.167C239.214 155.449 248.584 144.463 259.953 144.628C271.322 144.793 280.37 156.045 280.171 169.763C279.972 183.482 270.602 194.467 259.233 194.303Z" stroke="#2C2C2C" stroke-width="5" stroke-miterlimit="10"/>
<path d="M131.324 204.408C119.165 204.232 109.489 192.17 109.702 177.462C109.915 162.753 119.937 150.977 132.096 151.153C144.254 151.329 153.931 163.391 153.718 178.099C153.504 192.808 143.483 204.584 131.324 204.408Z" stroke="#2C2C2C" stroke-width="5" stroke-miterlimit="10"/>
<path d="M239.999 197.998C238.35 211.407 174.499 229.498 161.999 205.247L239.999 197.998Z" fill="#C8C8C8"/>
<path d="M239.999 197.998C243 185.031 153.499 190.499 161.999 205.247L239.999 197.998Z" fill="#C8C8C8"/>
<path d="M239.999 197.998C238.35 211.407 174.499 229.498 161.999 205.247L239.999 197.998Z" stroke="#2C2C2C" stroke-width="5" stroke-miterlimit="10"/>
<path d="M239.999 197.998C243 185.031 153.499 190.499 161.999 205.247L239.999 197.998Z" stroke="#2C2C2C" stroke-width="5" stroke-miterlimit="10"/>
<path d="M195.501 206.499C184.593 207.839 172.001 211.498 172.001 211.498C172.001 211.498 177.224 213.579 180.746 214.152C184.227 214.719 191.001 214.998 191.001 214.998C191.001 214.998 201.035 214.111 208.501 212.5C215.967 210.888 224.501 207.499 224.501 207.499C224.501 207.499 207.695 205.001 195.501 206.499Z" fill="#9C5959"/>
<path d="M124.68 192.34C121.54 192.34 119 188.68 119 184.17C119 179.66 121.54 176 124.68 176C127.82 176 130.36 179.66 130.36 184.17C130.36 188.68 127.82 192.34 124.68 192.34Z" fill="#2C2C2C"/>
<path d="M252.23 181.34C249.34 181.34 247 177.91 247 173.67C247 169.43 249.34 166 252.23 166C255.12 166 257.46 169.43 257.46 173.67C257.46 177.91 255.12 181.34 252.23 181.34Z" fill="#2C2C2C"/>
<path d="M89.283 55.5994C84.6891 34.2574 78.421 21.0235 66.2344 6.99854" stroke="#2C2C2C" stroke-width="5"/>
<path d="M91.283 55.6267C86.6891 34.2847 80.421 21.0508 68.2344 7.02588" stroke="#373737" stroke-width="2"/>
<path d="M90.1856 60.9788C92.6706 61.0148 94.7143 59.0295 94.7503 56.5445C94.7863 54.0594 92.801 52.0157 90.3159 51.9797C87.8309 51.9437 85.7872 53.9291 85.7512 56.4141C85.7152 58.8991 87.7005 60.9428 90.1856 60.9788Z" fill="#2C2C2C"/>
<path d="M64.9991 10.107C67.7603 10.147 70.0311 7.94111 70.0711 5.17998C70.1111 2.41884 67.9051 0.148074 65.144 0.108073C62.3829 0.0680719 60.1121 2.27399 60.0721 5.03512C60.0321 7.79625 62.238 10.067 64.9991 10.107Z" fill="#2C2C2C"/>
<path d="M65.2143 0.0587958C68.014 0.0993558 70.2508 2.402 70.2103 5.20171C70.1854 6.92153 69.3034 8.42891 67.9702 9.32969C68.5521 8.51803 68.9065 7.52306 68.922 6.45318C68.9626 3.65347 66.7257 1.35083 63.926 1.31027C62.8561 1.29477 61.8513 1.62024 61.0231 2.17831C61.962 0.881771 63.4943 0.0438793 65.2141 0.0687947L65.2143 0.0587958Z" fill="#373737"/>
<path d="M91.365 51.9973C93.8063 52.6128 95.2806 55.0844 94.6754 57.5159C94.3037 59.0107 93.217 60.155 91.8794 60.6657C92.5581 60.0755 93.0696 59.2828 93.3032 58.3461C93.9186 55.9048 92.4343 53.433 89.9928 52.8276C89.0561 52.594 88.1149 52.6703 87.2702 52.9881C88.354 52.0437 89.8702 51.6257 91.375 51.9975L91.365 51.9973Z" fill="#373737"/>
<defs>
<filter id="filter0_f_1138_8154" x="6.69141" y="203" width="269.037" height="87.5742" filterUnits="userSpaceOnUse" color-interpolation-filters="sRGB">
<feFlood flood-opacity="0" result="BackgroundImageFix"/>
<feBlend mode="normal" in="SourceGraphic" in2="BackgroundImageFix" result="shape"/>
<feGaussianBlur stdDeviation="9.5" result="effect1_foregroundBlur_1138_8154"/>
</filter>
</defs>
</svg>
