<svg width="302" height="291" viewBox="0 0 302 291" fill="none" xmlns="http://www.w3.org/2000/svg">
<g filter="url(#filter0_f_1138_7746)">
<path d="M83.1301 270.308L30.1019 238.734C22.2452 234.055 25.5624 222.001 34.7063 222.001L208.108 222C209.762 222 211.384 222.456 212.796 223.318L252.411 247.494C259.943 252.09 257.036 263.622 248.225 264.078C189.043 267.139 155.687 267.702 88.2853 271.559C86.4907 271.662 84.6746 271.228 83.1301 270.308Z" fill="black" fill-opacity="0.2"/>
</g>
<path d="M236.09 114.177L213.702 62.7769L204.128 54.6873L187.16 48.2408L155.996 42.7188L129.349 45.0831L98.1228 49.4512L78.354 55.4355L66.7861 63.4887L59.9537 69.8204L46.3569 83.995L37.6627 97.3404L33.5913 111.903L31.8814 118.789L21.928 123.785L12.1331 134.404L6.51784 145.084C6.51784 145.084 2.71629 158.281 2.62587 158.999C2.53544 159.718 3.39035 172.502 3.39035 172.502L5.8484 180.248L7.89915 171.927L11.9728 157.205L15.5653 152.916L22.0283 161.041L24.739 173.441L30.0559 194.4L31.1923 205.018L39.7889 215.664L52.4153 222.217L56.6216 198.346L62.8424 179.004L70.16 173.009L77.5423 173.596L80.3064 182.307L83.4067 189.903L86.7548 202.483L87.9027 212.3L88.9558 217.616L89.3626 228.193L102.167 242.46L121.53 247.241L153.811 252.929L171.84 250.35L205.758 250.041L237.629 245.363L275.833 235.715L290.101 226.281L297.466 217.066L297.309 205.823L294.02 199.515L291.712 192.42L292.842 180.706L288.969 159.447L281.182 142.633L271.214 132.047L253.517 122.79L259.267 119.343L263.405 110.572L257.911 101.821L250.225 100.1L240.008 106.703L236.039 114.196L236.059 114.196L236.09 114.177Z" fill="#959595"/>
<path d="M105.03 242.251L99.2954 255.66L90.5376 260.964L80.5699 266.95L69.0844 261.723L59.6822 245.925L54.7177 222.731L56.6411 198.346L65.2598 177.099L70.1799 172.989L79.2318 177.061L86.7747 202.463L88.0799 214.533L88.7386 218.773L89.3624 228.183L94.4562 239.688L105.02 242.251L105.03 242.251Z" fill="#3D3D3D"/>
<path d="M284.984 231.607L282.177 242.418L273.348 253.371L260.731 259.219L246.085 259.547L246.314 256.84L255.071 250.946L261.438 243.567L263.187 239.492L284.984 231.607Z" fill="#3D3D3D"/>
<path d="M19.349 156.09L24.7583 173.43L27.1089 185.836L29.0798 199.596C29.7809 202.286 30.4921 204.967 31.1932 207.657C31.2824 210.479 31.2634 217.309 28.5001 223.73C28.5001 223.73 26.5958 228.153 22.1001 231.968C21.8368 232.194 21.5054 232.289 21.1227 232.474C19.9041 233.056 13.5636 222.003 13.5636 222.003L8.06692 202.402L7.69944 178.064L10.3709 160.031L17.6839 154.356L19.3493 156.07L19.3593 156.07L19.349 156.09Z" fill="#3D3D3D"/>
<path d="M74.5311 173.704L74.7178 175.317L69.8443 176.906L68.8568 175.342L72.5544 173.465L74.5311 173.704Z" fill="#2C2C2C"/>
<path d="M193.16 65.5698C191.693 67.4488 193.248 67.1013 190.855 67.2766C180.965 67.2434 167.342 65.2358 157.641 65.2553C142.909 65.982 122.695 68.1494 108.277 69.2906C105.674 69.5229 103.01 69.7744 100.527 69.2484C96.7824 68.8541 91.8078 63.6115 95.9824 61.2517C105.482 57.1989 134.685 53.0615 159.016 53.874C163.015 53.942 168.609 54.413 172.223 54.8654C179.441 55.7701 183.322 56.3664 189.817 58.1306C192.686 58.9723 194.18 62.1043 193.191 65.5003L193.15 65.5697L193.16 65.5698Z" fill="#A7A7A7"/>
<path d="M210.415 122.634C188.132 121.991 170.697 122.269 148.267 125.514C144.256 126.266 135.417 126.798 139.79 132.882C142.453 136.791 145.797 140.71 148.732 144.523C157.479 155.841 166.547 161.563 181.039 162.883C194.241 164.244 215.78 165.186 225.488 155.686C232.711 147.98 232.016 135.888 224.928 128.105C221.253 124.291 215.761 122.951 210.615 122.657L210.425 122.654L210.415 122.634Z" fill="#A7A7A7"/>
<path d="M265.377 145.653L275.046 153.364L280.561 164.795L280.1 174.569L276.156 185.863L268.175 192.058L255.201 195.02L246.468 188.273L238.492 172.696L242.528 155.083L256.886 144.25L265.377 145.633L265.377 145.653Z" fill="#CAF698"/>
<path d="M146.121 156.926L151.272 167.232L153.032 182.439L149.948 189.645L143.544 198.133L130.583 202.236L119.062 198.779L110.975 186.12L109.898 169.283L116.034 156.5L125.36 152.015L137.943 151.207L146.121 156.926Z" fill="#CAF698"/>
<path d="M79.3813 246.209C82.9475 251.331 86.7426 242.035 89.5414 236.615C91.7978 232.737 88.2296 213.253 87.5927 208.894C86.7644 205.321 86.1815 202.063 84.1348 199.063C82.7982 197.433 76.5121 199.192 74.693 200.496C71.9633 202.527 70.8891 208.332 69.6991 212.465C68.1509 217.853 67.8225 235 69.8645 240.4L79.3812 246.219L79.3813 246.209Z" fill="#4E4E4E"/>
<path d="M13.8979 185.804C13.7963 207.315 18.7835 214.448 20.6959 215.675C22.9453 217.118 25.7672 203.198 25.5197 193.363C28.1749 191.641 25.9155 182.608 21.4162 177.002C20.5812 175.96 18.9991 174.026 17.6739 174.377C16.8005 174.605 16.5947 175.692 14.924 181.248C13.9049 184.634 13.7497 184.992 13.8978 185.814L13.8979 185.804Z" fill="#4E4E4E"/>
<path d="M79.6426 129.42C85.3883 132.523 88.8272 134.694 91.0463 136.156C102.102 143.437 110.112 151.054 115.381 156.69L109.42 169.135L109.038 181.741L114.978 192.818L119.385 199.283L127.766 202.735L144.184 197.432L148.317 188.981L151.309 181.964C151.309 181.964 194.281 204.908 241.076 179.404L244.63 188.766L255.636 193.986L269.302 192.974L277.424 186.661L280.757 172.658L281.906 165.204L277.95 138.644L288.669 152.61L292.093 170.972C291.678 173.356 291.274 175.74 290.869 178.125C290.399 180.878 288.833 185.436 286.09 190.477C282.063 197.839 277.157 202.329 274.259 204.917C269.041 209.602 263.602 212.963 257.337 215.973C251.909 218.575 234.484 226.393 207.903 228.338C192.355 229.473 176.836 229.968 165.884 228.69C148.252 226.634 144.696 224.932 141.208 224.092C121.824 219.39 109.342 212.549 102.01 202.232C98.7954 197.715 96.2349 190.827 96.2349 190.827C93.3789 185.005 92.5068 178.241 86.4266 165.092C85.8932 163.944 84.9327 161.9 83.2271 159.515C82.5215 158.515 80.2459 155.431 76.646 152.639C71.6716 148.766 66.7234 147.225 63.8827 146.563C57.9486 144.727 46.5152 142.811 40.5812 140.975C26.3667 134.279 18.4898 135.385 13.8229 137.207C12.787 137.612 10.6546 139.142 10.272 138.626C9.33022 137.362 18.5912 127.695 26.3611 120.857C27.4018 119.432 28.5939 117.919 29.9565 116.369C31.0953 115.075 32.2223 113.911 33.3076 112.867C40.0098 116.214 47.7413 119.617 56.4674 122.713C64.7855 125.664 72.5751 127.817 79.6128 129.409L79.6426 129.42Z" fill="#878787"/>
<path opacity="0.42" d="M63.4135 132.697C60.5886 135.087 57.9814 139.019 59.1478 142.727C61.2376 146.897 66.0665 144.247 67.9402 141.244C70.1153 138.145 72.7444 134.773 75.6729 132.135C78.9146 128.591 85.3319 126.064 85.8121 120.531C85.8728 109.44 85.9736 98.3405 86.1349 87.2017C86.2114 81.9222 85.9613 75.718 83.7974 70.4461C79.3994 60.6113 67.1155 67.004 60.6298 72.1806C51.3019 79.5663 45.3308 87.8807 41.9104 98.9323C40.6417 102.974 39.4321 107.077 38.2342 111.07C38.0661 111.628 37.8746 112.415 37.9981 112.867C38.3781 114.253 44.9587 109.428 46.3518 109.218C49.1788 108.069 51.8423 108.537 54.5304 108.686C56.3802 108.713 58.2338 108.48 60.475 109.102C62.128 109.596 63.8713 110.072 65.3083 110.982C67.1584 112.369 69.5938 114.775 71.5394 116.473C73.3172 118.019 74.2466 119.443 75.7955 121.606C77.2529 123.867 78.8947 125.821 78.556 128.496C78.3498 129.613 78.0111 130.899 76.9438 131.393C72.7156 131.932 67.2961 129.093 63.5852 132.58L63.4234 132.707L63.4135 132.697Z" fill="#6F6F6F"/>
<path d="M4.21093 151.021C5.2276 143.665 11.2652 135.592 19.7084 135.434C23.2628 135.156 26.0022 135.906 29.5189 136.847C34.6296 138.221 39.697 139.814 44.7187 141.117C55.7382 143.987 67.6115 145.919 76.9298 153.005C81.9806 156.439 84.5234 161.096 86.977 166.392C94.2603 181.399 95.6965 194.101 103.209 202.931C114.201 216.022 136.688 223.288 152.024 226.411C165.35 228.884 178.477 228.914 191.133 228.587C203.789 228.26 211.472 227.412 223.68 225.558C235.888 223.705 249.865 220.867 262.19 212.985C267.226 209.858 271.778 206.303 275.887 202.272C279.53 198.645 284.118 193.971 287.541 186.929C289.147 183.722 290.432 179.961 291.211 176.592C291.797 174.09 292.05 171.843 292.205 172.186C292.793 178.535 293.476 188.676 293.647 194.099C292.961 197.999 291.23 202.145 289.736 205.863C287.755 209.435 283.764 211.487 281.721 215.158C280.413 217.099 278.676 219.655 277.378 221.516C276.532 222.614 276.377 222.982 275.403 223.267C267.36 224.771 225.781 234.11 208.512 237.31C202.997 237.66 181.108 240.193 174.702 240.551C162.958 240.05 136.755 242.151 130.078 241.854C127.6 241.738 126.643 240.814 123.848 239.744C115.529 236.183 97.2301 228.377 92.7477 226.442C90.3519 225.447 90.3991 222.187 89.4622 219.894C86.0186 210.453 85.8693 200.05 83.1474 190.499C81.8028 186.659 80.1698 179.955 78.3939 176.209C75.8737 172.752 70.1805 172.239 66.8038 174.751C64.7325 176.201 63.729 179.197 62.6773 181.382C59.6269 188.978 56.7324 201.008 53.7377 210.285C52.4277 213.727 53.6671 218.605 53.2498 221.869C52.9546 223.605 51.8533 222.019 50.22 221.545C48.6075 221.012 46.2286 217.757 44.4968 217.182C41.1057 215.853 37.267 215.737 35.7103 212.044C34.0917 209.17 32.261 205.754 30.7018 202.931C29.7068 201.196 29.2834 200.05 29.05 198.206C28.4598 194.077 26.8532 182.783 25.9817 176.67C25.5669 174.233 25.6292 172.694 24.679 170.63C23.0679 167.246 20.768 162.393 19.0191 158.847C17.4949 155.674 15.4267 154.154 12.4976 157.522C9.00773 161.632 8.97835 167.112 7.55635 172.072C6.30288 176.444 2.7621 177.163 3.11059 173.128C3.30444 165.96 2.94313 157.764 4.19891 151.161L4.22108 151.012L4.21093 151.021Z" fill="#6B6B6B"/>
<path d="M261.398 106.124C257.125 114.643 248.322 116.816 240.602 110.533C239.898 110.113 239.157 108.832 238.309 109.36C237.763 109.752 236.978 111.491 236.452 112.573C236.276 112.991 236.079 113.478 236.243 113.91C237.074 115.213 239.613 116.679 240.822 117.447C243.468 118.465 247.034 119.447 249.771 120.377C251.095 120.816 251.948 121.269 253.379 121.899C254.929 122.592 255.939 123.307 257.2 121.865C259.151 119.713 262.218 117.877 263.158 115.13C263.428 114.444 263.698 113.748 263.978 113.052C264.366 111.847 265.294 110.581 264.501 109.409C263.853 108.59 262.373 106.488 261.459 106.105L261.399 106.104L261.398 106.124Z" fill="#6B6B6B"/>
<path d="M66.9843 112.595C66.5543 113.969 67.5541 116.063 66.9568 117.945C65.7375 122.028 58.823 122.288 55.5054 121.409C51.1031 120.156 48.4125 118.106 45.6042 114.515C43.2278 111.491 46.2516 107.104 40.5482 114.202C37.0956 118.502 38.9605 125.77 44.0243 128.304C49.8304 130.688 55.9405 132.797 62.3246 131.869C65.5668 131.046 68.883 129.954 72.1853 131.202C74.1874 131.761 77.2362 131.865 78.6297 130.255C80.9391 126.858 74.3412 121.832 72.4178 119.294C70.8716 117.642 68.8226 113.412 67.3854 112.521C67.2563 112.459 67.1164 112.447 67.015 112.545L66.9844 112.585L66.9843 112.595Z" fill="#6B6B6B"/>
<path opacity="0.74" d="M208.118 74.0187L213.939 87.8345L220.416 106.72L222.717 114.224L211.385 114.3L188.352 112.276L162.787 113.836L133.834 116.547L106.297 121.689L99.3215 120.628L95.0304 117.915L93.3274 102.229L93.1006 77.1529L98.7028 72.9036L115.634 68.8084L152.704 63.5249L180.095 67.102L193.75 68.26L203.129 69.1159L208.118 74.0087L208.118 74.0187Z" fill="#424242"/>
<path opacity="0.74" d="M78.3829 120.423L79.6017 110.16L80.3651 87.1482L77.6972 73.1781L72.5561 71.8335L68.7785 73.709L61.634 79.4961L56.3867 84.1006L46.8724 98.1342L43.0809 108.57L52.5436 109.138L60.0452 108.396L67.1804 110.85L72.2625 114.884L74.6757 118.129L75.4838 121.031L78.3827 120.433L78.3829 120.423Z" fill="#424242"/>
<path d="M293.959 201.664C292.603 202.044 291.144 203.323 289.479 205.049C284.432 210.307 277.07 215.931 270.118 219.49C261.038 224.249 250.457 227.396 240.629 229.304C230.047 231.381 217.315 233.537 206.552 234.311C195.229 235.127 171.074 236.327 141.326 233.896C128.17 232.815 115.868 226.667 103.353 222.055C99.6824 220.711 96.7786 216.119 93.314 216.409C89.2477 216.82 87.3408 222.113 88.1165 225.864C88.7253 229.404 91.5509 236.635 94.4851 239.128C96.2536 240.624 98.1747 241.942 100.148 243.121C106.643 246.935 117.5 247.922 125.461 250.008C134.406 251.798 143.312 252.807 152.211 252.936C160.217 253.282 176.426 252.066 185.851 252.463C191.398 252.743 190.537 252.791 195.809 251.997C209.832 249.85 226.972 248.558 241.062 245.262C246.662 243.913 252.513 242.478 258.153 241.119C263.564 239.727 268.427 238.908 273.347 236.819C278.109 234.638 282.669 231.923 287.502 228.983C292.192 226.241 295.249 221.644 296.774 216.486C298.164 212.406 300.259 200.335 294.079 201.635L293.979 201.664L293.959 201.664Z" fill="#5E5E5E"/>
<path d="M261.495 239.709L258.723 248.1L249.212 255.673L239.069 257.216L233.335 254.003L226.207 246.919L261.485 239.719L261.495 239.709Z" fill="#2C2C2C"/>
<path d="M122.362 247.853L119.045 255.196L112.294 262.809L107.204 266.916L94.1096 269.196L86.4679 264.425L93.4543 262.656L98.3739 255.127L103.342 244.917L109.129 244.471L122.361 247.873L122.362 247.853Z" fill="#2C2C2C"/>
<path d="M31.3783 205.95C31.3612 209.891 31.0045 213.116 30.6508 215.441C30.0982 219.063 29.4916 220.895 29.2725 221.522C28.5419 223.631 27.7913 225.741 25.9709 227.824C24.4354 229.572 22.7607 230.578 21.6624 231.142C23.593 231.8 25.5139 232.448 27.4447 233.096L39.4304 233.48L49.9397 226.011L51.4383 220.593L31.3683 205.95L31.3783 205.95Z" fill="#2C2C2C"/>
<path d="M298.452 210.341C297.079 222.322 289.438 228.502 279.281 233.725C274.038 236.67 265.826 238.141 259.189 239.995C248.711 242.503 238.6 245.987 228.151 247.186C218.031 248.47 202.701 251.128 190.999 252.618C185.959 253.256 184.348 252.632 178.616 252.729C170.223 252.878 159.778 251.746 151.485 251.876C143.519 252.251 138.525 251.818 130.826 250.287C123.696 248.843 116.958 248.656 110.194 246.137C102.504 243.346 93.5661 241.036 90.5254 232.781C89.0903 228.98 86.2763 224.399 87.2984 222.193C89.0533 219.798 95.4534 227.432 97.0736 228.805C100.462 231.695 104.891 233.849 108.468 235.481C112.312 237.297 117.111 238.807 121.486 239.89C143.541 245.2 164.219 244.09 186.458 242.962C209.066 241.889 226.753 239.485 248.789 234.374C261.771 231.541 276.705 227.227 287.246 218.299C289.058 216.805 290.723 215.079 292.229 213.311C293.752 211.683 298.914 204.687 298.454 210.201L298.452 210.331L298.452 210.341Z" fill="#4E4E4E"/>
<path d="M53.0531 212.717C53.0531 212.717 44.6321 205.824 38.7569 200.619C38.1645 200.09 37.1508 198.265 35.2937 191.148C32.9436 182.163 32.1871 175.011 31.9609 172.677C31.395 166.869 30.8991 161.751 31.5296 154.819C32.0056 149.576 32.4692 144.492 35.1465 138.49C37.5865 132.985 40.8231 129.101 43.1582 126.695" stroke="#535353" stroke-width="5" stroke-miterlimit="10"/>
<path d="M142.475 155.226C142.475 155.226 139.116 146.136 127.071 137.421C121.717 133.543 116.614 130.969 112.587 129.31C106.165 126.657 105.09 126.331 99.9062 121.696" stroke="#808080" stroke-width="5" stroke-miterlimit="10"/>
<path d="M242.72 155.586C243.112 145.111 242.683 141.554 237.992 132.635C235.569 128.02 233.233 125.655 231.17 123.745C230.913 123.512 230.636 123.328 230.369 123.104C227.752 120.806 225.449 118.232 223.44 115.403C223.176 115.029 222.931 114.635 222.707 114.232" stroke="#808080" stroke-width="5" stroke-miterlimit="10"/>
<path d="M297.291 216.652L294.904 215.911L294.903 215.913L297.291 216.652ZM275.811 235.833L275.104 233.435L275.066 233.446L275.028 233.458L275.811 235.833ZM215.651 249.203L215.945 251.685L215.945 251.685L215.651 249.203ZM116.797 247.39L116.173 249.811L116.213 249.822L116.253 249.831L116.797 247.39ZM94.4257 239.035L92.9947 241.085L92.9963 241.086L94.4257 239.035ZM117.32 230.2C118.642 230.598 120.037 229.849 120.435 228.527C120.833 227.205 120.084 225.811 118.762 225.413L117.32 230.2ZM293.065 198.389C291.169 200.018 291.169 200.018 291.168 200.017C291.168 200.017 291.168 200.016 291.167 200.016C291.167 200.015 291.166 200.014 291.166 200.014C291.165 200.013 291.165 200.013 291.165 200.013C291.165 200.013 291.167 200.015 291.17 200.019C291.177 200.027 291.19 200.043 291.209 200.067C291.248 200.114 291.31 200.191 291.391 200.296C291.554 200.508 291.793 200.832 292.077 201.255C292.645 202.104 293.378 203.332 294.023 204.83C295.321 207.848 296.187 211.773 294.904 215.911L297.291 216.652L299.679 217.392C301.438 211.723 300.191 206.517 298.616 202.855C297.824 201.014 296.929 199.515 296.23 198.472C295.88 197.948 295.575 197.535 295.353 197.246C295.241 197.101 295.15 196.987 295.083 196.905C295.05 196.865 295.023 196.832 295.002 196.807C294.992 196.795 294.983 196.785 294.977 196.777C294.973 196.773 294.97 196.769 294.968 196.766C294.966 196.765 294.965 196.764 294.964 196.762C294.964 196.762 294.963 196.761 294.963 196.761C294.962 196.76 294.961 196.759 293.065 198.389ZM297.291 216.652L294.903 215.913C293.579 220.195 290.496 224.044 286.698 227.138C282.906 230.226 278.588 232.408 275.104 233.435L275.811 235.833L276.518 238.231C280.667 237.008 285.573 234.502 289.855 231.015C294.131 227.532 297.971 222.915 299.68 217.39L297.291 216.652ZM275.811 235.833L275.028 233.458C258.55 238.895 238.478 243.98 215.357 246.72L215.651 249.203L215.945 251.685C239.449 248.9 259.85 243.731 276.594 238.207L275.811 235.833ZM215.651 249.203L215.357 246.72C173.031 251.733 142.145 250.476 117.341 244.95L116.797 247.39L116.253 249.831C141.772 255.515 173.257 256.741 215.945 251.685L215.651 249.203ZM116.797 247.39C117.421 244.97 117.421 244.97 117.421 244.97C117.421 244.97 117.421 244.97 117.421 244.97C117.421 244.969 117.42 244.969 117.42 244.969C117.418 244.969 117.416 244.968 117.412 244.967C117.405 244.965 117.394 244.963 117.379 244.959C117.35 244.951 117.305 244.939 117.246 244.924C117.128 244.893 116.953 244.846 116.726 244.785C116.273 244.664 115.617 244.485 114.81 244.256C113.194 243.8 110.982 243.15 108.592 242.375C103.687 240.783 98.4493 238.792 95.8552 236.984L94.4257 239.035L92.9963 241.086C96.2933 243.384 102.241 245.571 107.049 247.131C109.516 247.931 111.792 248.6 113.45 249.068C114.28 249.303 114.957 249.487 115.429 249.614C115.664 249.677 115.848 249.726 115.975 249.759C116.038 249.776 116.086 249.789 116.12 249.797C116.136 249.802 116.149 249.805 116.158 249.807C116.163 249.809 116.166 249.809 116.168 249.81C116.17 249.81 116.171 249.811 116.171 249.811C116.172 249.811 116.172 249.811 116.172 249.811C116.173 249.811 116.173 249.811 116.797 247.39ZM94.4257 239.035L95.8568 236.986C93.7196 235.494 91.9907 231.981 91.1679 227.92C90.7725 225.969 90.625 224.065 90.7045 222.49C90.7889 220.817 91.112 219.867 91.3429 219.523L89.268 218.129L87.1932 216.734C86.1924 218.223 85.8092 220.289 85.7108 222.238C85.6075 224.285 85.8007 226.609 86.2675 228.913C87.1691 233.363 89.2507 238.472 92.9947 241.085L94.4257 239.035ZM89.268 218.129L91.3429 219.523C91.7954 218.85 91.8644 219.073 91.4947 219.136C91.2227 219.182 91.2231 219.034 91.8927 219.403C92.5937 219.789 93.2154 220.243 94.4497 221.006C95.5649 221.695 96.9275 222.464 98.5911 223.122L99.5105 220.797L100.43 218.472C99.14 217.962 98.0535 217.355 97.0794 216.753C96.2244 216.224 95.1165 215.47 94.3032 215.022C93.4585 214.558 92.1597 213.952 90.6593 214.206C89.0611 214.477 87.9723 215.575 87.1932 216.734L89.268 218.129ZM99.5105 220.797L98.5911 223.122C104.199 225.339 104.89 226.457 117.32 230.2L118.041 227.806L118.762 225.413C106.557 221.738 106.636 220.927 100.43 218.472L99.5105 220.797Z" fill="#2C2C2C"/>
<path d="M255.603 122.409C255.603 122.409 268.527 117.416 262.036 105C254.257 93.0864 238.64 103.861 235.11 114.891" stroke="#2C2C2C" stroke-width="5" stroke-miterlimit="10"/>
<path d="M76.1424 123.24C76.1424 123.24 78.9836 123.181 79.0957 118.892L79.1311 79.8589C79.1646 78.2392 79.0079 76.6267 78.6006 75.0607C78.288 73.856 77.8351 72.6693 77.2207 72.2804C76.4782 71.7596 75.8023 71.4698 74.8739 71.3563C58.9035 68.5047 43.2291 110.112 43.2291 110.112" stroke="#2C2C2C" stroke-width="5" stroke-miterlimit="10"/>
<path d="M70.682 72.0252C70.682 72.0252 63.3821 100.962 61.9508 107.252" stroke="#2C2C2C" stroke-width="5" stroke-miterlimit="10"/>
<path d="M73.4587 119.982C73.4587 119.982 80.9742 125.872 78.7724 130.12C76.5707 134.369 68.3928 129.33 68.3928 129.33C68.3928 129.33 60.3312 133.523 52.1187 130.874C45.1935 128.424 36.9845 123.464 39.6118 114.691C42.4705 105.142 56.1619 106.52 61.515 108.418C66.8681 110.316 71.5776 114.524 73.4587 119.982Z" stroke="#2C2C2C" stroke-width="5" stroke-miterlimit="10"/>
<path d="M142.965 64.8417C138.009 65.2 128.45 65.7816 112.217 68.5967C103.434 70.1196 98.2634 70.8348 95.1629 74.9903C94.0307 76.5141 93.4414 78.5358 93.4001 81.3855C93.262 90.9145 94.4545 112.844 94.838 116.06C95.2214 119.276 97.0883 122.953 105.466 121.784C113.834 120.616 139.84 114.892 162.977 113.837C186.115 112.782 188.752 111.64 224.044 114.511C224.044 114.511 213.037 83.8288 210.637 78.9835C209.675 77.0293 208.66 75.2945 207.133 73.7422C203.141 69.7139 198.115 68.701 195.384 68.0514C182.676 65.057 167.021 63.8801 160.388 64.034C155.536 64.1438 147.931 64.4836 142.975 64.8419L142.965 64.8417Z" stroke="#2C2C2C" stroke-width="5" stroke-miterlimit="10"/>
<path d="M285.952 231.051C285.952 231.051 281.911 251.124 269.092 256.509C256.273 261.894 242.078 258.688 242.078 258.688C242.078 258.688 231.947 255.861 226.375 248.4" stroke="#2C2C2C" stroke-width="5" stroke-miterlimit="10"/>
<path d="M262.283 239.06C262.283 239.06 257.746 263.617 231.875 253.831" stroke="#2C2C2C" stroke-width="5" stroke-miterlimit="10"/>
<path d="M121.298 247.997C121.298 247.997 117.469 268.624 97.66 268.427C77.2308 268.221 59.8167 264.238 54.3743 224.325C54.3743 224.325 53.3782 179.176 73.9779 176.584C73.9779 176.584 74.8613 176.357 78.7928 176.974" stroke="#2C2C2C" stroke-width="5" stroke-miterlimit="10"/>
<path d="M104.664 242.617C104.664 242.617 95.2414 280.025 68.4921 259.765" stroke="#2C2C2C" stroke-width="5" stroke-miterlimit="10"/>
<path d="M91.3305 233.911C91.3305 233.911 83.602 257.912 71.6156 240.316C61.0564 223.622 69.3369 205.7 69.3369 205.7C69.3369 205.7 75.0641 191.431 85.9243 199.089" stroke="#2C2C2C" stroke-width="5" stroke-miterlimit="10"/>
<path d="M51.4487 220.592C51.4487 220.592 45.6414 234.86 32.1537 233.914C18.666 232.969 15.9504 229.189 12.496 219.808C9.00294 209.636 7.44214 191.732 7.81231 177.226C8.18248 162.719 14.1046 152.954 17.7785 154.778" stroke="#2C2C2C" stroke-width="5" stroke-miterlimit="10"/>
<path d="M15.6041 178.518C15.6041 178.518 9.9238 195.758 17.0165 212.192C17.0165 212.192 21.5294 222.379 24.5593 210.671C27.0149 199.946 25.7985 184.506 23.0917 178.737C20.395 172.967 18.0025 171.742 15.6041 178.518Z" stroke="#2C2C2C" stroke-width="5" stroke-miterlimit="10"/>
<path d="M31.9412 205.728C31.7055 208.875 30.8443 231.735 20.9498 231.282" stroke="#2C2C2C" stroke-width="5" stroke-miterlimit="10"/>
<path d="M89.2777 218.14C89.2777 218.14 84.4566 174.005 73.5586 172.407C62.6606 170.809 54.9662 202.811 53.6438 216.773L52.9016 223.823C38.5415 217.515 31.1919 205.007 31.1919 205.007C24.2779 161.052 22.0181 157.569 16.2945 153.636C10.5709 149.702 6.29932 183.604 6.29932 183.604C3.04179 175.126 1.25453 165.949 6.35679 146.501C11.459 127.053 31.5725 118.673 31.5725 118.673L35.8746 106.134C40.187 93.5754 46.8603 80.2806 56.4739 71.1289C60.652 67.1491 64.6066 64.096 70.4099 60.4597C98.4174 42.8836 134.054 43.3498 158.756 44.1077C173.681 44.564 200.17 48.9682 211.323 60.5709C222.811 72.5586 235.109 114.891 235.109 114.891C235.109 114.891 274.903 128.719 281.216 142.302C287.096 152.028 293.139 167.047 293.131 184.879C293.113 202.711 290.911 205.569 290.911 205.569C290.911 205.569 286.251 211.042 282.61 213.16" stroke="#2C2C2C" stroke-width="5" stroke-miterlimit="10" stroke-linecap="round"/>
<path d="M132.087 153.654C121.208 153.496 112.222 164.197 112.028 177.566C111.835 190.934 120.497 201.891 131.386 202.049C142.275 202.206 151.251 191.505 151.444 178.137C151.638 164.768 142.976 153.811 132.087 153.654ZM131.422 199.529C122.353 199.397 114.186 189.838 114.355 178.199C114.524 166.561 122.952 158.092 132.021 158.224C141.09 158.355 147.02 167.031 146.852 178.67C146.683 190.309 140.491 199.66 131.422 199.529Z" fill="#8AC155"/>
<path d="M131.322 204.408C119.163 204.232 109.487 192.17 109.7 177.462C109.913 162.753 119.935 150.977 132.094 151.154C144.252 151.33 153.929 163.391 153.716 178.1C153.502 192.808 143.481 204.584 131.322 204.408Z" stroke="#2C2C2C" stroke-width="5" stroke-miterlimit="10"/>
<path d="M259.858 146.934C249.819 146.788 241.534 156.739 241.354 169.148C241.174 181.557 249.168 191.743 259.207 191.889C269.245 192.034 277.53 182.083 277.71 169.675C277.89 157.266 269.897 147.079 259.858 146.934ZM259.24 189.559C250.871 189.438 243.335 180.528 243.492 169.679C243.65 158.83 251.429 150.952 259.798 151.074C268.167 151.195 273.646 159.265 273.489 170.113C273.332 180.962 267.609 189.68 259.24 189.559Z" fill="#8AC155"/>
<path d="M259.231 194.301C247.862 194.136 238.814 182.884 239.013 169.165C239.212 155.447 248.582 144.461 259.951 144.626C271.32 144.791 280.368 156.043 280.169 169.762C279.97 183.48 270.6 194.465 259.231 194.301Z" stroke="#2C2C2C" stroke-width="5" stroke-miterlimit="10"/>
<path d="M260.33 166.62C257.39 166.62 255 163.12 255 158.81C255 154.5 257.39 151 260.33 151C263.27 151 265.65 154.5 265.65 158.81C265.65 163.12 263.27 166.62 260.33 166.62Z" fill="#2C2C2C"/>
<path d="M131.68 175.34C128.54 175.34 126 171.68 126 167.17C126 162.66 128.54 159 131.68 159C134.82 159 137.36 162.66 137.36 167.17C137.36 171.68 134.82 175.34 131.68 175.34Z" fill="#2C2C2C"/>
<path d="M242 201.533C222.074 197.585 190.767 201.93 159 207" stroke="#2C2C2C" stroke-width="5" stroke-miterlimit="10" stroke-linecap="round"/>
<path d="M89.283 55.5994C84.6891 34.2574 78.421 21.0235 66.2344 6.99854" stroke="#2C2C2C" stroke-width="5"/>
<path d="M91.283 55.6267C86.6891 34.2847 80.421 21.0508 68.2344 7.02588" stroke="#373737" stroke-width="2"/>
<path d="M90.1856 60.9788C92.6706 61.0148 94.7143 59.0295 94.7503 56.5445C94.7863 54.0594 92.801 52.0157 90.3159 51.9797C87.8309 51.9437 85.7872 53.9291 85.7512 56.4141C85.7152 58.8991 87.7005 60.9428 90.1856 60.9788Z" fill="#2C2C2C"/>
<path d="M64.9991 10.107C67.7603 10.147 70.0311 7.94111 70.0711 5.17998C70.1111 2.41884 67.9051 0.148074 65.144 0.108073C62.3829 0.0680719 60.1121 2.27399 60.0721 5.03512C60.0321 7.79625 62.238 10.067 64.9991 10.107Z" fill="#2C2C2C"/>
<path d="M65.2143 0.0587958C68.014 0.0993558 70.2508 2.402 70.2103 5.20171C70.1854 6.92153 69.3034 8.42891 67.9702 9.32969C68.5521 8.51803 68.9065 7.52306 68.922 6.45318C68.9626 3.65347 66.7257 1.35083 63.926 1.31027C62.8561 1.29477 61.8513 1.62024 61.0231 2.17831C61.962 0.881771 63.4943 0.0438793 65.2141 0.0687947L65.2143 0.0587958Z" fill="#373737"/>
<path d="M91.365 51.9973C93.8063 52.6128 95.2806 55.0844 94.6754 57.5159C94.3037 59.0107 93.217 60.155 91.8794 60.6657C92.5581 60.0755 93.0696 59.2828 93.3032 58.3461C93.9186 55.9048 92.4343 53.433 89.9928 52.8276C89.0561 52.594 88.1149 52.6703 87.2702 52.9881C88.354 52.0437 89.8702 51.6257 91.375 51.9975L91.365 51.9973Z" fill="#373737"/>
<defs>
<filter id="filter0_f_1138_7746" x="6.69141" y="203" width="269.037" height="87.5742" filterUnits="userSpaceOnUse" color-interpolation-filters="sRGB">
<feFlood flood-opacity="0" result="BackgroundImageFix"/>
<feBlend mode="normal" in="SourceGraphic" in2="BackgroundImageFix" result="shape"/>
<feGaussianBlur stdDeviation="9.5" result="effect1_foregroundBlur_1138_7746"/>
</filter>
</defs>
</svg>
