<svg width="302" height="291" viewBox="0 0 302 291" fill="none" xmlns="http://www.w3.org/2000/svg">
<g filter="url(#filter0_f_1138_6923)">
<path d="M83.1301 270.308L30.1019 238.734C22.2452 234.055 25.5624 222.001 34.7063 222.001L208.108 222C209.762 222 211.384 222.456 212.796 223.318L252.411 247.494C259.943 252.09 257.036 263.622 248.225 264.078C189.043 267.139 155.687 267.702 88.2853 271.559C86.4907 271.662 84.6746 271.228 83.1301 270.308Z" fill="black" fill-opacity="0.2"/>
</g>
<path d="M236.09 114.178L213.702 62.7782L204.128 54.6887L187.16 48.2422L155.996 42.7202L129.349 45.0844L98.1228 49.4526L78.354 55.4368L66.7861 63.4901L59.9537 69.8218L46.3569 83.9963L37.6627 97.3418L33.5913 111.904L31.8814 118.79L21.928 123.787L12.1331 134.406L6.51784 145.086C6.51784 145.086 2.71629 158.282 2.62587 159.001C2.53544 159.719 3.39035 172.503 3.39035 172.503L5.8484 180.25L7.89915 171.928L11.9728 157.206L15.5653 152.918L22.0283 161.042L24.739 173.443L30.0559 194.402L31.1923 205.019L39.7889 215.665L52.4153 222.219L56.6216 198.347L62.8424 179.005L70.16 173.01L77.5423 173.597L80.3064 182.308L83.4067 189.904L86.7548 202.484L87.9027 212.302L88.9558 217.617L89.3626 228.194L102.167 242.461L121.53 247.242L153.811 252.931L171.84 250.351L205.758 250.043L237.629 245.364L275.833 235.716L290.101 226.282L297.466 217.068L297.309 205.824L294.02 199.516L291.712 192.422L292.842 180.707L288.969 159.449L281.182 142.634L271.214 132.049L253.517 122.791L259.267 119.344L263.405 110.573L257.911 101.823L250.225 100.101L240.008 106.704L236.039 114.197L236.059 114.197L236.09 114.178Z" fill="#959595"/>
<path d="M105.03 242.253L99.2954 255.661L90.5376 260.965L80.5699 266.951L69.0844 261.724L59.6822 245.926L54.7177 222.732L56.6411 198.347L65.2598 177.1L70.1799 172.991L79.2318 177.062L86.7747 202.464L88.0799 214.534L88.7386 218.774L89.3624 228.184L94.4562 239.689L105.02 242.253L105.03 242.253Z" fill="#3D3D3D"/>
<path d="M284.984 231.608L282.177 242.419L273.348 253.372L260.731 259.22L246.085 259.548L246.314 256.841L255.071 250.947L261.438 243.569L263.187 239.494L284.984 231.608Z" fill="#3D3D3D"/>
<path d="M19.3509 156.092L24.7603 173.432L27.1108 185.837L29.0817 199.597C29.7828 202.288 30.4941 204.968 31.1952 207.659C31.2843 210.48 31.2654 217.311 28.5021 223.731C28.5021 223.731 26.5978 228.154 22.1021 231.969C21.8388 232.196 21.5073 232.291 21.1246 232.475C19.9061 233.058 13.5655 222.005 13.5655 222.005L8.06888 202.403L7.70139 178.065L10.3729 160.032L17.6859 154.357L19.3512 156.072L19.3612 156.072L19.3509 156.092Z" fill="#3D3D3D"/>
<path d="M74.5292 173.705L74.7158 175.318L69.8423 176.908L68.8549 175.343L72.5524 173.467L74.5292 173.705Z" fill="#2C2C2C"/>
<path d="M193.158 65.5709C191.691 67.4499 193.246 67.1024 190.853 67.2777C180.963 67.2445 167.34 65.2369 157.639 65.2564C142.907 65.9831 122.693 68.1505 108.275 69.2917C105.672 69.524 103.008 69.7755 100.525 69.2495C96.7804 68.8552 91.8059 63.6126 95.9805 61.2528C105.48 57.2 134.683 53.0626 159.014 53.8751C163.013 53.943 168.607 54.4141 172.221 54.8665C179.439 55.7712 183.32 56.3675 189.816 58.1317C192.684 58.9734 194.178 62.1054 193.189 65.5014L193.148 65.5708L193.158 65.5709Z" fill="#A7A7A7"/>
<path d="M210.415 122.635C188.132 121.992 170.697 122.27 148.267 125.515C144.256 126.267 135.417 126.799 139.79 132.883C142.453 136.792 145.797 140.711 148.732 144.524C157.479 155.842 166.547 161.564 181.039 162.884C194.241 164.245 215.78 165.187 225.488 155.687C232.711 147.981 232.016 135.889 224.928 128.106C221.253 124.292 215.761 122.953 210.615 122.658L210.425 122.655L210.415 122.635Z" fill="#A7A7A7"/>
<path d="M265.377 145.654L275.046 153.365L280.561 164.796L280.1 174.57L276.156 185.864L268.175 192.059L255.201 195.022L246.468 188.275L238.492 172.697L242.528 155.084L256.886 144.251L265.377 145.634L265.377 145.654Z" fill="#CAF698"/>
<path d="M146.121 156.927L151.272 167.233L153.032 182.44L149.948 189.646L143.544 198.134L130.583 202.237L119.062 198.78L110.975 186.121L109.898 169.284L116.034 156.502L125.36 152.016L137.943 151.208L146.121 156.927Z" fill="#CAF698"/>
<path d="M79.3794 246.21C82.9455 251.332 86.7406 242.036 89.5394 236.616C91.7958 232.738 88.2277 213.255 87.5908 208.895C86.7624 205.323 86.1796 202.064 84.1328 199.064C82.7963 197.434 76.5101 199.194 74.6911 200.497C71.9614 202.528 70.8872 208.333 69.6972 212.466C68.1489 217.854 67.8205 235.001 69.8625 240.402L79.3792 246.22L79.3794 246.21Z" fill="#4E4E4E"/>
<path d="M13.8999 185.805C13.7983 207.316 18.7855 214.449 20.6979 215.677C22.9472 217.12 25.7692 203.199 25.5216 193.364C28.1768 191.643 25.9175 182.609 21.4182 177.003C20.5832 175.961 19.001 174.028 17.6758 174.379C16.8024 174.606 16.5967 175.693 14.926 181.25C13.9068 184.635 13.7516 184.993 13.8998 185.815L13.8999 185.805Z" fill="#4E4E4E"/>
<path d="M79.6426 129.421C85.3883 132.524 88.8272 134.694 91.0463 136.157C102.102 143.438 110.112 151.055 115.381 156.691L109.42 169.136L109.038 181.742L114.978 192.819L119.385 199.284L127.766 202.736L144.184 197.433L148.317 188.982L151.309 181.965C151.309 181.965 194.281 204.909 241.076 179.405L244.63 188.767L255.636 193.987L269.302 192.975L277.424 186.662L280.757 172.659L281.906 165.205L277.95 138.644L288.669 152.611L292.093 170.973C291.678 173.357 291.274 175.741 290.869 178.126C290.399 180.879 288.833 185.437 286.09 190.478C282.063 197.84 277.157 202.33 274.259 204.918C269.041 209.603 263.602 212.964 257.337 215.974C251.909 218.576 234.484 226.394 207.903 228.339C192.355 229.474 176.836 229.969 165.884 228.691C148.252 226.635 144.696 224.933 141.208 224.093C121.824 219.391 109.342 212.55 102.01 202.233C98.7954 197.715 96.2349 190.828 96.2349 190.828C93.3789 185.006 92.5068 178.242 86.4266 165.093C85.8932 163.945 84.9327 161.901 83.2271 159.516C82.5215 158.516 80.2459 155.432 76.646 152.64C71.6716 148.767 66.7234 147.226 63.8827 146.564C57.9486 144.728 46.5152 142.812 40.5812 140.976C26.3667 134.28 18.4898 135.386 13.8229 137.208C12.787 137.613 10.6546 139.143 10.272 138.627C9.33022 137.363 18.5912 127.696 26.3611 120.858C27.4018 119.433 28.5939 117.92 29.9565 116.37C31.0953 115.076 32.2223 113.912 33.3076 112.868C40.0098 116.215 47.7413 119.618 56.4674 122.714C64.7855 125.665 72.5751 127.818 79.6128 129.41L79.6426 129.421Z" fill="#878787"/>
<path opacity="0.42" d="M63.4135 132.698C60.5886 135.088 57.9814 139.02 59.1478 142.728C61.2376 146.898 66.0665 144.248 67.9402 141.245C70.1153 138.146 72.7444 134.774 75.6729 132.136C78.9146 128.593 85.3319 126.065 85.8121 120.532C85.8728 109.441 85.9736 98.3416 86.1349 87.2028C86.2114 81.9233 85.9613 75.7191 83.7974 70.4472C79.3994 60.6124 67.1155 67.0051 60.6298 72.1817C51.3019 79.5674 45.3308 87.8818 41.9104 98.9334C40.6417 102.975 39.4321 107.078 38.2342 111.071C38.0661 111.629 37.8746 112.416 37.9981 112.868C38.3781 114.254 44.9587 109.429 46.3518 109.219C49.1788 108.07 51.8423 108.538 54.5304 108.687C56.3802 108.714 58.2338 108.481 60.475 109.103C62.128 109.597 63.8713 110.073 65.3083 110.984C67.1584 112.371 69.5938 114.776 71.5394 116.474C73.3172 118.02 74.2466 119.444 75.7955 121.607C77.2529 123.868 78.8947 125.822 78.556 128.497C78.3498 129.614 78.0111 130.9 76.9438 131.394C72.7156 131.933 67.2961 129.094 63.5852 132.581L63.4234 132.709L63.4135 132.698Z" fill="#6F6F6F"/>
<path d="M4.21093 151.023C5.2276 143.667 11.2652 135.593 19.7084 135.436C23.2628 135.157 26.0022 135.907 29.5189 136.848C34.6296 138.222 39.697 139.816 44.7187 141.119C55.7382 143.989 67.6115 145.921 76.9298 153.006C81.9806 156.44 84.5234 161.097 86.977 166.393C94.2603 181.4 95.6965 194.103 103.209 202.932C114.201 216.023 136.688 223.289 152.024 226.412C165.35 228.885 178.477 228.915 191.133 228.588C203.789 228.262 211.472 227.413 223.68 225.56C235.888 223.706 249.865 220.869 262.19 212.986C267.226 209.859 271.778 206.305 275.887 202.274C279.53 198.646 284.118 193.972 287.541 186.931C289.147 183.724 290.432 179.962 291.211 176.593C291.797 174.091 292.05 171.845 292.205 172.187C292.793 178.536 293.476 188.677 293.647 194.1C292.961 198.001 291.23 202.146 289.736 205.865C287.755 209.436 283.764 211.489 281.721 215.159C280.413 217.101 278.676 219.656 277.378 221.517C276.532 222.615 276.377 222.983 275.403 223.269C267.36 224.772 225.781 234.111 208.512 237.311C202.997 237.661 181.108 240.195 174.702 240.552C162.958 240.052 136.755 242.152 130.078 241.856C127.6 241.74 126.643 240.816 123.848 239.745C115.529 236.184 97.2301 228.378 92.7477 226.443C90.3519 225.448 90.3991 222.189 89.4622 219.895C86.0186 210.454 85.8693 200.051 83.1474 190.5C81.8028 186.661 80.1698 179.956 78.3939 176.21C75.8737 172.753 70.1805 172.241 66.8038 174.752C64.7325 176.202 63.729 179.198 62.6773 181.383C59.6269 188.98 56.7324 201.009 53.7377 210.286C52.4277 213.728 53.6671 218.606 53.2498 221.871C52.9546 223.607 52.3492 222.308 50.7159 221.834C49.1034 221.301 46.2286 217.758 44.4968 217.183C41.1057 215.854 37.267 215.738 35.7103 212.046C34.0917 209.172 32.261 205.755 30.7018 202.932C29.7068 201.197 29.2834 200.051 29.05 198.208C28.4598 194.079 26.8532 182.784 25.9817 176.671C25.5669 174.235 25.6292 172.695 24.679 170.631C23.0679 167.248 20.768 162.394 19.0191 158.848C17.4949 155.676 15.4267 154.156 12.4976 157.524C9.00773 161.633 8.97835 167.114 7.55635 172.073C6.30288 176.446 2.7621 177.165 3.11059 173.129C3.30444 165.961 2.94313 157.765 4.19891 151.163L4.22108 151.013L4.21093 151.023Z" fill="#6B6B6B"/>
<path d="M261.398 106.125C257.125 114.644 248.322 116.817 240.602 110.534C239.898 110.114 239.157 108.833 238.309 109.361C237.763 109.753 236.978 111.492 236.452 112.574C236.276 112.992 236.079 113.479 236.243 113.911C237.074 115.214 239.613 116.681 240.822 117.448C243.468 118.467 247.034 119.448 249.771 120.378C251.095 120.817 251.948 121.27 253.379 121.901C254.929 122.593 255.939 123.308 257.2 121.866C259.151 119.714 262.218 117.878 263.158 115.131C263.428 114.445 263.698 113.749 263.978 113.053C264.366 111.849 265.294 110.582 264.501 109.41C263.853 108.591 262.373 106.489 261.459 106.106L261.399 106.105L261.398 106.125Z" fill="#6B6B6B"/>
<path d="M66.9843 112.596C66.5543 113.97 67.5541 116.064 66.9568 117.946C65.7375 122.029 58.823 122.289 55.5054 121.41C51.1031 120.157 48.4125 118.107 45.6042 114.516C43.2278 111.492 46.2516 107.105 40.5482 114.203C37.0956 118.503 38.9605 125.771 44.0243 128.305C49.8304 130.689 55.9405 132.798 62.3246 131.87C65.5668 131.047 68.883 129.955 72.1853 131.203C74.1874 131.762 77.2362 131.866 78.6297 130.256C80.9391 126.859 74.3412 121.833 72.4178 119.295C70.8716 117.643 68.8226 113.412 67.3854 112.522C67.2563 112.46 67.1164 112.448 67.015 112.546L66.9844 112.586L66.9843 112.596Z" fill="#6B6B6B"/>
<path opacity="0.74" d="M208.118 74.0198L213.939 87.8356L220.416 106.721L222.717 114.225L211.385 114.301L188.352 112.277L162.787 113.837L133.834 116.548L106.297 121.69L99.3215 120.629L95.0304 117.916L93.3274 102.23L93.1006 77.154L98.7028 72.9047L115.634 68.8095L152.704 63.526L180.095 67.1031L193.75 68.2611L203.129 69.117L208.118 74.0098L208.118 74.0198Z" fill="#424242"/>
<path opacity="0.74" d="M78.3829 120.424L79.6017 110.161L80.3651 87.1493L77.6972 73.1792L72.5561 71.8346L68.7785 73.7101L61.634 79.4972L56.3867 84.1017L46.8724 98.1353L43.0809 108.572L52.5436 109.139L60.0452 108.397L67.1804 110.851L72.2625 114.885L74.6757 118.13L75.4838 121.032L78.3827 120.434L78.3829 120.424Z" fill="#424242"/>
<path d="M293.957 201.665C292.601 202.045 291.142 203.324 289.477 205.05C284.431 210.308 277.068 215.932 270.116 219.491C261.036 224.25 250.455 227.398 240.627 229.306C230.045 231.382 217.313 233.538 206.55 234.312C195.227 235.128 171.072 236.328 141.324 233.897C128.168 232.817 115.866 226.668 103.351 222.056C99.6804 220.713 96.7767 216.12 93.3121 216.41C89.2457 216.821 87.3388 222.114 88.1146 225.866C88.7234 229.405 91.5489 236.637 94.4831 239.129C96.2516 240.625 98.1727 241.943 100.146 243.122C106.641 246.936 117.498 247.924 125.459 250.009C134.404 251.799 143.31 252.808 152.209 252.937C160.215 253.283 176.424 252.068 185.85 252.464C191.396 252.745 190.535 252.792 195.807 251.998C209.83 249.851 226.97 248.56 241.06 245.263C246.66 243.914 252.511 242.479 258.151 241.12C263.562 239.729 268.425 238.909 273.345 236.82C278.107 234.639 282.667 231.925 287.5 228.984C292.191 226.242 295.247 221.646 296.772 216.487C298.162 212.407 300.257 200.336 294.077 201.637L293.977 201.665L293.957 201.665Z" fill="#5E5E5E"/>
<path d="M261.495 239.711L258.723 248.101L249.212 255.674L239.069 257.218L233.335 254.004L226.207 246.92L261.485 239.72L261.495 239.711Z" fill="#2C2C2C"/>
<path d="M122.362 247.855L119.045 255.197L112.294 262.81L107.204 266.917L94.1096 269.198L86.4679 264.426L93.4543 262.657L98.3739 255.128L103.342 244.919L109.129 244.473L122.361 247.875L122.362 247.855Z" fill="#2C2C2C"/>
<path d="M31.3783 205.952C31.3612 209.892 31.0045 213.117 30.6508 215.442C30.0982 219.065 29.4916 220.896 29.2725 221.523C28.5419 223.632 27.7913 225.742 25.9709 227.826C24.4354 229.574 22.7607 230.579 21.6624 231.144C23.593 231.802 25.5139 232.45 27.4447 233.098L39.4304 233.481L49.9397 226.013L51.4383 220.594L31.3683 205.952L31.3783 205.952Z" fill="#2C2C2C"/>
<path d="M298.452 210.342C297.079 222.323 289.438 228.503 279.281 233.727C274.038 236.671 265.826 238.142 259.189 239.996C248.711 242.505 238.6 245.989 228.151 247.187C218.031 248.471 202.701 251.129 190.999 252.62C185.959 253.257 184.348 252.633 178.616 252.73C170.223 252.879 159.778 251.747 151.485 251.877C143.519 252.252 138.525 251.82 130.826 250.288C123.696 248.844 116.958 248.657 110.194 246.139C102.504 243.347 93.5661 241.037 90.5254 232.782C89.0903 228.981 86.2763 224.4 87.2984 222.194C89.0533 219.8 95.4534 227.433 97.0736 228.807C100.462 231.696 104.891 233.851 108.468 235.482C112.312 237.298 117.111 238.808 121.486 239.892C143.541 245.202 164.219 244.091 186.458 242.963C209.066 241.89 226.753 239.486 248.789 234.375C261.771 231.543 276.705 227.229 287.246 218.3C289.058 216.807 290.723 215.08 292.229 213.312C293.752 211.684 298.914 204.688 298.454 210.202L298.452 210.332L298.452 210.342Z" fill="#4E4E4E"/>
<path d="M53.0531 212.718C53.0531 212.718 44.6321 205.826 38.7569 200.62C38.1645 200.091 37.1508 198.267 35.2937 191.149C32.9436 182.164 32.1871 175.012 31.9609 172.679C31.395 166.87 30.8991 161.752 31.5296 154.821C32.0056 149.577 32.4692 144.493 35.1465 138.491C37.5865 132.986 40.8231 129.103 43.1582 126.696" stroke="#535353" stroke-width="5" stroke-miterlimit="10"/>
<path d="M142.475 155.227C142.475 155.227 139.116 146.137 127.071 137.422C121.717 133.544 116.614 130.97 112.587 129.311C106.165 126.658 105.09 126.332 99.9062 121.697" stroke="#808080" stroke-width="5" stroke-miterlimit="10"/>
<path d="M242.722 155.587C243.114 145.112 242.685 141.555 237.994 132.636C235.571 128.021 233.235 125.656 231.172 123.746C230.915 123.513 230.638 123.329 230.371 123.105C227.754 120.807 225.451 118.233 223.442 115.404C223.177 115.03 222.933 114.636 222.709 114.233" stroke="#808080" stroke-width="5" stroke-miterlimit="10"/>
<path d="M297.291 216.653L294.904 215.912L294.903 215.915L297.291 216.653ZM275.811 235.834L275.104 233.436L275.066 233.447L275.028 233.46L275.811 235.834ZM215.651 249.204L215.945 251.687L215.945 251.687L215.651 249.204ZM116.797 247.392L116.173 249.813L116.213 249.823L116.253 249.832L116.797 247.392ZM94.4257 239.037L92.9947 241.087L92.9963 241.088L94.4257 239.037ZM117.32 230.202C118.642 230.6 120.037 229.851 120.435 228.529C120.833 227.207 120.084 225.812 118.762 225.414L117.32 230.202ZM293.065 198.39C291.169 200.02 291.169 200.019 291.168 200.018C291.168 200.018 291.168 200.018 291.167 200.017C291.167 200.016 291.166 200.016 291.166 200.015C291.165 200.014 291.165 200.014 291.165 200.014C291.165 200.014 291.167 200.016 291.17 200.02C291.177 200.029 291.19 200.044 291.209 200.068C291.248 200.115 291.31 200.192 291.391 200.298C291.554 200.509 291.793 200.833 292.077 201.256C292.645 202.105 293.378 203.333 294.023 204.832C295.321 207.85 296.187 211.775 294.904 215.912L297.291 216.653L299.679 217.394C301.438 211.725 300.191 206.518 298.616 202.856C297.824 201.015 296.929 199.516 296.23 198.473C295.88 197.95 295.575 197.537 295.353 197.247C295.241 197.103 295.15 196.989 295.083 196.907C295.05 196.866 295.023 196.833 295.002 196.809C294.992 196.797 294.983 196.786 294.977 196.778C294.973 196.774 294.97 196.771 294.968 196.768C294.966 196.766 294.965 196.765 294.964 196.764C294.964 196.763 294.963 196.762 294.963 196.762C294.962 196.761 294.961 196.76 293.065 198.39ZM297.291 216.653L294.903 215.915C293.579 220.197 290.496 224.045 286.698 227.139C282.906 230.228 278.588 232.409 275.104 233.436L275.811 235.834L276.518 238.232C280.667 237.009 285.573 234.504 289.855 231.016C294.131 227.534 297.971 222.917 299.68 217.392L297.291 216.653ZM275.811 235.834L275.028 233.46C258.55 238.896 238.478 243.981 215.357 246.721L215.651 249.204L215.945 251.687C239.449 248.901 259.85 243.732 276.594 238.208L275.811 235.834ZM215.651 249.204L215.357 246.721C173.031 251.735 142.145 250.477 117.341 244.952L116.797 247.392L116.253 249.832C141.772 255.517 173.257 256.743 215.945 251.687L215.651 249.204ZM116.797 247.392C117.421 244.971 117.421 244.971 117.421 244.971C117.421 244.971 117.421 244.971 117.421 244.971C117.421 244.971 117.42 244.971 117.42 244.971C117.418 244.97 117.416 244.97 117.412 244.969C117.405 244.967 117.394 244.964 117.379 244.96C117.35 244.953 117.305 244.941 117.246 244.925C117.128 244.894 116.953 244.848 116.726 244.787C116.273 244.665 115.617 244.486 114.81 244.258C113.194 243.801 110.982 243.151 108.592 242.376C103.687 240.785 98.4493 238.794 95.8552 236.986L94.4257 239.037L92.9963 241.088C96.2933 243.386 102.241 245.572 107.049 247.132C109.516 247.932 111.792 248.601 113.45 249.07C114.28 249.304 114.957 249.489 115.429 249.616C115.664 249.679 115.848 249.728 115.975 249.761C116.038 249.778 116.086 249.79 116.12 249.799C116.136 249.803 116.149 249.807 116.158 249.809C116.163 249.81 116.166 249.811 116.168 249.812C116.17 249.812 116.171 249.812 116.171 249.812C116.172 249.812 116.172 249.812 116.172 249.813C116.173 249.813 116.173 249.813 116.797 247.392ZM94.4257 239.037L95.8568 236.987C93.7196 235.495 91.9907 231.983 91.1679 227.922C90.7725 225.97 90.625 224.067 90.7045 222.491C90.7889 220.819 91.112 219.868 91.3429 219.525L89.268 218.13L87.1932 216.735C86.1924 218.224 85.8092 220.29 85.7108 222.239C85.6075 224.286 85.8007 226.611 86.2675 228.915C87.1691 233.364 89.2507 238.473 92.9947 241.087L94.4257 239.037ZM89.268 218.13L91.3429 219.525C91.7954 218.851 91.8644 219.075 91.4947 219.137C91.2227 219.183 91.2231 219.036 91.8927 219.404C92.5937 219.79 93.2154 220.244 94.4497 221.007C95.5649 221.697 96.9275 222.466 98.5911 223.123L99.5105 220.799L100.43 218.474C99.14 217.964 98.0535 217.357 97.0794 216.755C96.2244 216.226 95.1165 215.471 94.3032 215.024C93.4585 214.559 92.1597 213.953 90.6593 214.208C89.0611 214.478 87.9723 215.576 87.1932 216.735L89.268 218.13ZM99.5105 220.799L98.5911 223.123C104.199 225.341 104.89 226.459 117.32 230.202L118.041 227.808L118.762 225.414C106.557 221.739 106.636 220.928 100.43 218.474L99.5105 220.799Z" fill="#2C2C2C"/>
<path d="M255.603 122.41C255.603 122.41 268.527 117.417 262.036 105.001C254.257 93.0875 238.64 103.862 235.11 114.892" stroke="#2C2C2C" stroke-width="5" stroke-miterlimit="10"/>
<path d="M76.1424 123.241C76.1424 123.241 78.9836 123.182 79.0957 118.893L79.1311 79.8598C79.1646 78.2402 79.0079 76.6277 78.6006 75.0617C78.288 73.857 77.8351 72.6703 77.2207 72.2814C76.4782 71.7606 75.8023 71.4707 74.8739 71.3573C58.9035 68.5056 43.2291 110.113 43.2291 110.113" stroke="#2C2C2C" stroke-width="5" stroke-miterlimit="10"/>
<path d="M70.682 72.0262C70.682 72.0262 63.3821 100.963 61.9508 107.253" stroke="#2C2C2C" stroke-width="5" stroke-miterlimit="10"/>
<path d="M73.4587 119.983C73.4587 119.983 80.9742 125.873 78.7724 130.121C76.5707 134.37 68.3928 129.331 68.3928 129.331C68.3928 129.331 60.3312 133.525 52.1187 130.875C45.1935 128.425 36.9845 123.465 39.6118 114.692C42.4705 105.143 56.1619 106.521 61.515 108.419C66.8681 110.317 71.5776 114.526 73.4587 119.983Z" stroke="#2C2C2C" stroke-width="5" stroke-miterlimit="10"/>
<path d="M142.965 64.8427C138.009 65.2009 128.45 65.7825 112.217 68.5977C103.434 70.1206 98.2634 70.8358 95.1629 74.9913C94.0307 76.5151 93.4414 78.5367 93.4001 81.3865C93.262 90.9155 94.4545 112.845 94.838 116.061C95.2214 119.277 97.0883 122.954 105.466 121.785C113.834 120.617 139.84 114.893 162.977 113.838C186.115 112.783 188.752 111.641 224.044 114.512C224.044 114.512 213.037 83.8297 210.637 78.9845C209.675 77.0303 208.66 75.2954 207.133 73.7431C203.141 69.7149 198.115 68.702 195.384 68.0524C182.676 65.058 167.021 63.8811 160.388 64.035C155.536 64.1447 147.931 64.4846 142.975 64.8428L142.965 64.8427Z" stroke="#2C2C2C" stroke-width="5" stroke-miterlimit="10"/>
<path d="M285.952 231.052C285.952 231.052 281.911 251.126 269.092 256.511C256.273 261.895 242.078 258.689 242.078 258.689C242.078 258.689 231.947 255.862 226.375 248.401" stroke="#2C2C2C" stroke-width="5" stroke-miterlimit="10"/>
<path d="M262.285 239.062C262.285 239.062 257.748 263.619 231.877 253.833" stroke="#2C2C2C" stroke-width="5" stroke-miterlimit="10"/>
<path d="M121.3 247.999C121.3 247.999 117.471 268.625 97.6619 268.428C77.2328 268.222 59.8186 264.24 54.3762 224.327C54.3762 224.327 53.3801 179.178 73.9798 176.586C73.9798 176.586 74.8632 176.358 78.7947 176.975" stroke="#2C2C2C" stroke-width="5" stroke-miterlimit="10"/>
<path d="M104.664 242.619C104.664 242.619 95.2414 280.026 68.4921 259.767" stroke="#2C2C2C" stroke-width="5" stroke-miterlimit="10"/>
<path d="M91.3285 233.913C91.3285 233.913 83.6001 257.913 71.6137 240.318C61.0544 223.623 69.3349 205.701 69.3349 205.701C69.3349 205.701 75.0622 191.432 85.9224 199.091" stroke="#2C2C2C" stroke-width="5" stroke-miterlimit="10"/>
<path d="M51.4487 220.594C51.4487 220.594 45.6414 234.861 32.1537 233.915C18.666 232.97 15.9504 229.19 12.496 219.809C9.00294 209.637 7.44214 191.733 7.81231 177.227C8.18248 162.721 14.1046 152.955 17.7785 154.779" stroke="#2C2C2C" stroke-width="5" stroke-miterlimit="10"/>
<path d="M15.6041 178.521C15.6041 178.521 9.9238 195.76 17.0165 212.195C17.0165 212.195 21.5294 222.381 24.5593 210.674C27.0149 199.948 25.7985 184.509 23.0917 178.739C20.395 172.97 18.0025 171.745 15.6041 178.521Z" stroke="#2C2C2C" stroke-width="5" stroke-miterlimit="10"/>
<path d="M242.137 193.111C242.931 193.065 243.455 193.937 243.046 194.62C220.686 231.923 192.967 235.323 160.703 202.76" fill="#D9D9D9"/>
<path d="M160.703 202.76C192.967 235.323 220.686 231.923 243.046 194.62C243.455 193.937 242.931 193.065 242.137 193.111C210.427 194.948 191.999 197.603 161.295 201.064C160.471 201.157 160.119 202.171 160.703 202.76Z" stroke="#2C2C2C" stroke-width="5" stroke-miterlimit="10" stroke-linecap="round"/>
<path d="M204.003 211.002C192.906 212.342 180.498 215.502 180.498 215.502C180.498 215.502 185.037 219.088 188.999 220.502C195.999 223.002 204.003 222.499 204.003 222.499C204.003 222.499 212.142 222.001 218.247 218.501C224.352 215.001 227.498 211.002 227.498 211.002C227.498 211.002 216.411 209.504 204.003 211.002Z" fill="#9C5959"/>
<path d="M123.009 190.086C119.869 190.041 117.383 186.344 117.448 181.835C117.513 177.325 120.106 173.702 123.246 173.748C126.385 173.793 128.872 177.49 128.807 181.999C128.742 186.509 126.149 190.132 123.009 190.086Z" fill="#2C2C2C"/>
<path d="M31.9412 205.729C31.7055 208.876 30.8443 231.736 20.9498 231.283" stroke="#2C2C2C" stroke-width="5" stroke-miterlimit="10"/>
<path d="M89.2777 218.141C89.2777 218.141 84.4566 174.006 73.5586 172.408C62.6606 170.81 54.9662 202.812 53.6438 216.774L52.9016 223.824C38.5415 217.516 31.1919 205.008 31.1919 205.008C24.2779 161.053 22.0181 157.57 16.2945 153.637C10.5709 149.703 6.29932 183.605 6.29932 183.605C3.04179 175.127 1.25453 165.95 6.35679 146.502C11.459 127.054 31.5725 118.674 31.5725 118.674L35.8746 106.135C40.187 93.5763 46.8603 80.2816 56.4739 71.1299C60.652 67.15 64.6066 64.097 70.4099 60.4607C98.4174 42.8845 134.054 43.3508 158.756 44.1087C173.681 44.565 200.17 48.9691 211.323 60.5719C222.811 72.5596 235.109 114.892 235.109 114.892C235.109 114.892 274.903 128.72 281.216 142.303C287.096 152.029 293.139 167.048 293.131 184.88C293.113 202.712 290.911 205.57 290.911 205.57C290.911 205.57 286.251 211.043 282.61 213.161" stroke="#2C2C2C" stroke-width="5" stroke-miterlimit="10" stroke-linecap="round"/>
<path d="M132.087 153.655C121.208 153.497 112.222 164.198 112.028 177.567C111.835 190.936 120.497 201.892 131.386 202.05C142.275 202.208 151.251 191.507 151.444 178.138C151.638 164.769 142.976 153.813 132.087 153.655ZM131.422 199.53C122.353 199.399 114.186 189.84 114.355 178.201C114.524 166.562 122.952 158.093 132.021 158.225C141.09 158.356 147.02 167.033 146.852 178.672C146.683 190.31 140.491 199.662 131.422 199.53Z" fill="#8AC155"/>
<path d="M259.858 146.935C249.819 146.789 241.534 156.74 241.354 169.149C241.174 181.558 249.168 191.745 259.207 191.89C269.245 192.036 277.53 182.085 277.71 169.676C277.89 157.267 269.897 147.08 259.858 146.935ZM259.24 189.56C250.871 189.439 243.335 180.529 243.492 169.68C243.65 158.831 251.429 150.954 259.798 151.075C268.167 151.196 273.646 159.266 273.489 170.115C273.332 180.964 267.609 189.682 259.24 189.56Z" fill="#8AC155"/>
<path d="M251.548 181.799C248.659 181.757 246.368 178.293 246.43 174.054C246.491 169.814 248.881 166.419 251.77 166.46C254.66 166.502 256.95 169.966 256.889 174.205C256.827 178.445 254.438 181.841 251.548 181.799Z" fill="#2C2C2C"/>
<path d="M131.32 204.409C119.161 204.233 109.485 192.172 109.698 177.463C109.911 162.755 119.933 150.979 132.092 151.155C144.25 151.331 153.927 163.392 153.714 178.101C153.501 192.809 143.479 204.585 131.32 204.409Z" stroke="#2C2C2C" stroke-width="5" stroke-miterlimit="10"/>
<path d="M259.231 194.302C247.862 194.138 238.814 182.885 239.013 169.167C239.212 155.448 248.582 144.463 259.951 144.627C271.32 144.792 280.368 156.044 280.169 169.763C279.97 183.482 270.6 194.467 259.231 194.302Z" stroke="#2C2C2C" stroke-width="5" stroke-miterlimit="10"/>
<path d="M89.283 55.5994C84.6891 34.2574 78.421 21.0235 66.2344 6.99854" stroke="#2C2C2C" stroke-width="5"/>
<path d="M91.283 55.6267C86.6891 34.2847 80.421 21.0508 68.2344 7.02588" stroke="#373737" stroke-width="2"/>
<path d="M90.1856 60.9788C92.6706 61.0148 94.7143 59.0295 94.7503 56.5445C94.7863 54.0594 92.801 52.0157 90.3159 51.9797C87.8309 51.9437 85.7872 53.9291 85.7512 56.4141C85.7152 58.8991 87.7005 60.9428 90.1856 60.9788Z" fill="#2C2C2C"/>
<path d="M64.9991 10.107C67.7603 10.147 70.0311 7.94111 70.0711 5.17998C70.1111 2.41884 67.9051 0.148074 65.144 0.108073C62.3829 0.0680719 60.1121 2.27399 60.0721 5.03512C60.0321 7.79625 62.238 10.067 64.9991 10.107Z" fill="#2C2C2C"/>
<path d="M65.2143 0.0587958C68.014 0.0993558 70.2508 2.402 70.2103 5.20171C70.1854 6.92153 69.3034 8.42891 67.9702 9.32969C68.5521 8.51803 68.9065 7.52306 68.922 6.45318C68.9626 3.65347 66.7257 1.35083 63.926 1.31027C62.8561 1.29477 61.8513 1.62024 61.0231 2.17831C61.962 0.881771 63.4943 0.0438793 65.2141 0.0687947L65.2143 0.0587958Z" fill="#373737"/>
<path d="M91.365 51.9973C93.8063 52.6128 95.2806 55.0844 94.6754 57.5159C94.3037 59.0107 93.217 60.155 91.8794 60.6657C92.5581 60.0755 93.0696 59.2828 93.3032 58.3461C93.9186 55.9048 92.4343 53.433 89.9928 52.8276C89.0561 52.594 88.1149 52.6703 87.2702 52.9881C88.354 52.0437 89.8702 51.6257 91.375 51.9975L91.365 51.9973Z" fill="#373737"/>
<defs>
<filter id="filter0_f_1138_6923" x="6.69141" y="203" width="269.037" height="87.5742" filterUnits="userSpaceOnUse" color-interpolation-filters="sRGB">
<feFlood flood-opacity="0" result="BackgroundImageFix"/>
<feBlend mode="normal" in="SourceGraphic" in2="BackgroundImageFix" result="shape"/>
<feGaussianBlur stdDeviation="9.5" result="effect1_foregroundBlur_1138_6923"/>
</filter>
</defs>
</svg>
