<svg width="302" height="291" viewBox="0 0 302 291" fill="none" xmlns="http://www.w3.org/2000/svg">
<g filter="url(#filter0_f_1138_7159)">
<path d="M83.1301 270.308L30.1019 238.734C22.2452 234.055 25.5624 222.001 34.7063 222.001L208.108 222C209.762 222 211.384 222.456 212.796 223.318L252.411 247.494C259.943 252.09 257.036 263.622 248.225 264.078C189.043 267.139 155.687 267.702 88.2853 271.559C86.4907 271.662 84.6746 271.228 83.1301 270.308Z" fill="black" fill-opacity="0.2"/>
</g>
<path d="M236.09 114.175L213.702 62.7755L204.128 54.686L187.16 48.2395L155.996 42.7175L129.349 45.0817L98.1228 49.4499L78.354 55.4341L66.7861 63.4874L59.9537 69.8191L46.3569 83.9936L37.6627 97.3391L33.5913 111.902L31.8814 118.788L21.928 123.784L12.1331 134.403L6.51784 145.083C6.51784 145.083 2.71629 158.279 2.62587 158.998C2.53544 159.717 3.39035 172.501 3.39035 172.501L5.8484 180.247L7.89915 171.926L11.9728 157.203L15.5653 152.915L22.0283 161.039L24.739 173.44L30.0559 194.399L31.1923 205.017L39.7889 215.662L52.4153 222.216L56.6216 198.344L62.8424 179.002L70.16 173.008L77.5423 173.595L80.3064 182.306L83.4067 189.901L86.7548 202.481L87.9027 212.299L88.9558 217.615L89.3626 228.192L102.167 242.459L121.53 247.24L153.811 252.928L171.84 250.349L205.758 250.04L237.629 245.361L275.833 235.714L290.101 226.279L297.466 217.065L297.309 205.822L294.02 199.513L291.712 192.419L292.842 180.704L288.969 159.446L281.182 142.631L271.214 132.046L253.517 122.789L259.267 119.341L263.405 110.571L257.911 101.82L250.225 100.098L240.008 106.701L236.039 114.194L236.059 114.195L236.09 114.175Z" fill="#959595"/>
<path d="M105.03 242.252L99.2954 255.661L90.5376 260.964L80.5699 266.951L69.0844 261.724L59.6822 245.926L54.7177 222.731L56.6411 198.347L65.2598 177.099L70.1799 172.99L79.2318 177.062L86.7747 202.464L88.0799 214.534L88.7386 218.774L89.3624 228.184L94.4562 239.689L105.02 242.252L105.03 242.252Z" fill="#3D3D3D"/>
<path d="M284.986 231.608L282.179 242.418L273.349 253.372L260.733 259.22L246.087 259.547L246.316 256.84L255.073 250.947L261.44 243.568L263.189 239.493L284.986 231.608Z" fill="#3D3D3D"/>
<path d="M19.349 156.091L24.7583 173.431L27.1089 185.837L29.0798 199.597C29.7809 202.287 30.4921 204.968 31.1932 207.658C31.2824 210.48 31.2634 217.31 28.5001 223.731C28.5001 223.731 26.5958 228.154 22.1001 231.969C21.8368 232.195 21.5054 232.29 21.1227 232.475C19.9041 233.057 13.5636 222.004 13.5636 222.004L8.06692 202.403L7.69944 178.065L10.3709 160.031L17.6839 154.357L19.3493 156.071L19.3593 156.071L19.349 156.091Z" fill="#3D3D3D"/>
<path d="M74.5292 173.705L74.7158 175.318L69.8423 176.907L68.8549 175.343L72.5524 173.466L74.5292 173.705Z" fill="#2C2C2C"/>
<path d="M193.158 65.5685C191.691 67.4474 193.246 67.0999 190.853 67.2753C180.963 67.242 167.34 65.2345 157.639 65.2539C142.907 65.9806 122.693 68.148 108.275 69.2893C105.672 69.5216 103.008 69.773 100.525 69.247C96.7804 68.8527 91.8059 63.6101 95.9805 61.2504C105.48 57.1975 134.683 53.0601 159.014 53.8727C163.013 53.9406 168.607 54.4117 172.221 54.8641C179.439 55.7687 183.32 56.365 189.816 58.1293C192.684 58.9709 194.178 62.1029 193.189 65.4989L193.148 65.5684L193.158 65.5685Z" fill="#A7A7A7"/>
<path d="M210.415 122.632C188.132 121.989 170.697 122.267 148.267 125.512C144.256 126.264 135.417 126.796 139.79 132.88C142.453 136.789 145.797 140.708 148.732 144.521C157.479 155.839 166.547 161.561 181.039 162.881C194.241 164.242 215.78 165.184 225.488 155.684C232.711 147.978 232.016 135.887 224.928 128.103C221.253 124.289 215.761 122.95 210.615 122.655L210.425 122.652L210.415 122.632Z" fill="#A7A7A7"/>
<path d="M265.379 145.654L275.048 153.364L280.563 164.796L280.101 174.57L276.157 185.864L268.177 192.059L255.203 195.021L246.469 188.274L238.494 172.697L242.53 155.084L256.888 144.25L265.379 145.634L265.379 145.654Z" fill="#CAF698"/>
<path d="M146.119 156.927L151.27 167.233L153.03 182.44L149.946 189.646L143.542 198.134L130.581 202.237L119.06 198.779L110.973 186.121L109.896 169.283L116.032 156.501L125.358 152.016L137.941 151.208L146.119 156.927Z" fill="#CAF698"/>
<path d="M79.3794 246.209C82.9455 251.332 86.7406 242.036 89.5394 236.616C91.7958 232.738 88.2277 213.254 87.5908 208.894C86.7624 205.322 86.1796 202.063 84.1328 199.063C82.7963 197.434 76.5101 199.193 74.6911 200.497C71.9614 202.527 70.8872 208.332 69.6972 212.466C68.1489 217.854 67.8205 235.001 69.8625 240.401L79.3792 246.219L79.3794 246.209Z" fill="#4E4E4E"/>
<path d="M13.8979 185.805C13.7963 207.316 18.7835 214.449 20.6959 215.676C22.9453 217.119 25.7672 203.199 25.5197 193.364C28.1749 191.642 25.9155 182.609 21.4162 177.003C20.5812 175.961 18.9991 174.027 17.6739 174.378C16.8005 174.606 16.5947 175.693 14.924 181.249C13.9049 184.635 13.7497 184.993 13.8978 185.815L13.8979 185.805Z" fill="#4E4E4E"/>
<path d="M79.6426 129.418C85.3883 132.522 88.8272 134.692 91.0463 136.154C102.102 143.435 110.112 151.052 115.381 156.689L109.42 169.134L109.038 181.74L114.978 192.817L119.385 199.281L127.766 202.733L144.184 197.43L148.317 188.979L151.309 181.962C151.309 181.962 194.281 204.907 241.076 179.402L244.63 188.764L255.636 193.984L269.302 192.972L277.424 186.659L280.757 172.656L281.906 165.202L277.95 138.642L288.669 152.609L292.093 170.97C291.678 173.354 291.274 175.739 290.869 178.123C290.399 180.877 288.833 185.434 286.09 190.475C282.063 197.838 277.157 202.327 274.259 204.915C269.041 209.6 263.602 212.962 257.337 215.971C251.909 218.573 234.484 226.391 207.903 228.337C192.355 229.471 176.836 229.967 165.884 228.688C148.252 226.632 144.696 224.931 141.208 224.09C121.824 219.389 109.342 212.547 102.01 202.23C98.7954 197.713 96.2349 190.825 96.2349 190.825C93.3789 185.003 92.5068 178.24 86.4266 165.09C85.8932 163.942 84.9327 161.898 83.2271 159.513C82.5215 158.513 80.2459 155.43 76.646 152.637C71.6716 148.765 66.7234 147.223 63.8827 146.562C57.9486 144.726 46.5152 142.81 40.5812 140.974C26.3667 134.277 18.4898 135.383 13.8229 137.206C12.787 137.611 10.6546 139.14 10.272 138.624C9.33022 137.361 18.5912 127.694 26.3611 120.855C27.4018 119.43 28.5939 117.918 29.9565 116.367C31.0953 115.073 32.2223 113.91 33.3076 112.865C40.0098 116.213 47.7413 119.615 56.4674 122.712C64.7855 125.663 72.5751 127.816 79.6128 129.408L79.6426 129.418Z" fill="#878787"/>
<path opacity="0.42" d="M63.4135 132.696C60.5886 135.085 57.9814 139.018 59.1478 142.725C61.2376 146.896 66.0665 144.245 67.9402 141.242C70.1153 138.143 72.7444 134.771 75.6729 132.133C78.9146 128.59 85.3319 126.063 85.8121 120.529C85.8728 109.439 85.9736 98.3389 86.1349 87.2001C86.2114 81.9206 85.9613 75.7164 83.7974 70.4445C79.3994 60.6097 67.1155 67.0025 60.6298 72.1791C51.3019 79.5647 45.3308 87.8791 41.9104 98.9307C40.6417 102.973 39.4321 107.076 38.2342 111.069C38.0661 111.626 37.8746 112.414 37.9981 112.865C38.3781 114.251 44.9587 109.426 46.3518 109.216C49.1788 108.067 51.8423 108.536 54.5304 108.685C56.3802 108.711 58.2338 108.478 60.475 109.101C62.128 109.595 63.8713 110.07 65.3083 110.981C67.1584 112.368 69.5938 114.773 71.5394 116.472C73.3172 118.018 74.2466 119.441 75.7955 121.604C77.2529 123.865 78.8947 125.819 78.556 128.495C78.3498 129.612 78.0111 130.897 76.9438 131.392C72.7156 131.93 67.2961 129.092 63.5852 132.578L63.4234 132.706L63.4135 132.696Z" fill="#6F6F6F"/>
<path d="M4.21093 151.022C5.2276 143.666 11.2652 135.593 19.7084 135.435C23.2628 135.157 26.0022 135.906 29.5189 136.847C34.6296 138.222 39.697 139.815 44.7187 141.118C55.7382 143.988 67.6115 145.92 76.9298 153.006C81.9806 156.439 84.5234 161.097 86.977 166.393C94.2603 181.4 95.6965 194.102 103.209 202.932C114.201 216.022 136.688 223.289 152.024 226.411C165.35 228.885 178.477 228.915 191.133 228.588C203.789 228.261 211.472 227.413 223.68 225.559C235.888 223.706 249.865 220.868 262.19 212.986C267.226 209.858 271.778 206.304 275.887 202.273C279.53 198.646 284.118 193.972 287.541 186.93C289.147 183.723 290.432 179.961 291.211 176.592C291.797 174.091 292.05 171.844 292.205 172.186C292.793 178.536 293.476 188.677 293.647 194.1C292.961 198 291.23 202.145 289.736 205.864C287.755 209.436 283.764 211.488 281.721 215.159C280.413 217.1 278.676 219.655 277.378 221.517C276.532 222.615 276.377 222.982 275.403 223.268C267.36 224.772 225.781 234.111 208.512 237.311C202.997 237.661 181.108 240.194 174.702 240.551C162.958 240.051 136.755 242.152 130.078 241.855C127.6 241.739 126.643 240.815 123.848 239.745C115.529 236.184 97.2301 228.378 92.7477 226.443C90.3519 225.448 90.3991 222.188 89.4622 219.894C86.0186 210.454 85.8693 200.05 83.1474 190.5C81.8028 186.66 80.1698 179.956 78.3939 176.21C75.8737 172.753 70.1805 172.24 66.8038 174.752C64.7325 176.202 63.729 179.197 62.6773 181.382C59.6269 188.979 56.7324 201.008 53.7377 210.286C52.4277 213.727 53.6671 218.606 53.2498 221.87C52.9546 223.606 52.3492 222.307 50.7159 221.833C49.1034 221.3 46.2286 217.758 44.4968 217.183C41.1057 215.854 37.267 215.738 35.7103 212.045C34.0917 209.171 32.261 205.754 30.7018 202.932C29.7068 201.197 29.2834 200.051 29.05 198.207C28.4598 194.078 26.8532 182.784 25.9817 176.67C25.5669 174.234 25.6292 172.695 24.679 170.631C23.0679 167.247 20.768 162.393 19.0191 158.848C17.4949 155.675 15.4267 154.155 12.4976 157.523C9.00773 161.633 8.97835 167.113 7.55635 172.073C6.30288 176.445 2.7621 177.164 3.11059 173.129C3.30444 165.961 2.94313 157.765 4.19891 151.162L4.22108 151.012L4.21093 151.022Z" fill="#6B6B6B"/>
<path d="M261.4 106.122C257.127 114.641 248.324 116.814 240.604 110.531C239.9 110.111 239.159 108.83 238.311 109.358C237.765 109.75 236.98 111.489 236.454 112.572C236.278 112.989 236.081 113.476 236.245 113.909C237.076 115.211 239.615 116.678 240.824 117.445C243.47 118.464 247.036 119.446 249.773 120.375C251.097 120.814 251.95 121.267 253.381 121.898C254.931 122.59 255.941 123.305 257.202 121.863C259.153 119.711 262.22 117.875 263.16 115.129C263.43 114.442 263.7 113.746 263.98 113.05C264.368 111.846 265.296 110.579 264.503 109.407C263.855 108.588 262.375 106.486 261.461 106.103L261.401 106.102L261.4 106.122Z" fill="#6B6B6B"/>
<path d="M66.9843 112.593C66.5543 113.967 67.5541 116.062 66.9568 117.943C65.7375 122.026 58.823 122.286 55.5054 121.408C51.1031 120.154 48.4125 118.105 45.6042 114.514C43.2278 111.489 46.2516 107.102 40.5482 114.2C37.0956 118.501 38.9605 125.769 44.0243 128.302C49.8304 130.687 55.9405 132.795 62.3246 131.868C65.5668 131.045 68.883 129.952 72.1853 131.2C74.1874 131.759 77.2362 131.864 78.6297 130.254C80.9391 126.857 74.3412 121.831 72.4178 119.293C70.8716 117.64 68.8226 113.41 67.3854 112.519C67.2563 112.457 67.1164 112.445 67.015 112.544L66.9844 112.583L66.9843 112.593Z" fill="#6B6B6B"/>
<path opacity="0.74" d="M208.118 74.017L213.939 87.8327L220.416 106.719L222.717 114.223L211.385 114.299L188.352 112.275L162.787 113.834L133.834 116.545L106.297 121.687L99.3215 120.626L95.0304 117.913L93.3274 102.227L93.1006 77.1512L98.7028 72.9019L115.634 68.8067L152.704 63.5232L180.095 67.1003L193.75 68.2582L203.129 69.1142L208.118 74.007L208.118 74.017Z" fill="#424242"/>
<path opacity="0.74" d="M78.3829 120.421L79.6017 110.158L80.3651 87.1465L77.6972 73.1764L72.5561 71.8318L68.7785 73.7073L61.634 79.4944L56.3867 84.0989L46.8724 98.1325L43.0809 108.569L52.5436 109.136L60.0452 108.394L67.1804 110.848L72.2625 114.882L74.6757 118.127L75.4838 121.029L78.3827 120.431L78.3829 120.421Z" fill="#424242"/>
<path d="M293.957 201.664C292.601 202.045 291.142 203.324 289.477 205.05C284.431 210.307 277.068 215.931 270.116 219.491C261.036 224.25 250.455 227.397 240.627 229.305C230.045 231.382 217.313 233.538 206.55 234.312C195.227 235.128 171.072 236.328 141.324 233.897C128.168 232.816 115.866 226.667 103.351 222.056C99.6804 220.712 96.7767 216.12 93.3121 216.41C89.2457 216.821 87.3388 222.114 88.1146 225.865C88.7234 229.404 91.5489 236.636 94.4831 239.129C96.2516 240.625 98.1727 241.943 100.146 243.121C106.641 246.936 117.498 247.923 125.459 250.009C134.404 251.798 143.31 252.808 152.209 252.937C160.215 253.283 176.424 252.067 185.85 252.464C191.396 252.744 190.535 252.792 195.807 251.998C209.83 249.851 226.97 248.559 241.06 245.263C246.66 243.914 252.511 242.478 258.151 241.12C263.562 239.728 268.425 238.908 273.345 236.82C278.107 234.638 282.667 231.924 287.5 228.984C292.191 226.241 295.247 221.645 296.772 216.487C298.162 212.406 300.257 200.336 294.077 201.636L293.977 201.665L293.957 201.664Z" fill="#5E5E5E"/>
<path d="M261.495 239.71L258.723 248.101L249.212 255.674L239.069 257.217L233.335 254.004L226.207 246.92L261.485 239.72L261.495 239.71Z" fill="#2C2C2C"/>
<path d="M122.36 247.854L119.043 255.197L112.292 262.81L107.202 266.917L94.1077 269.197L86.466 264.426L93.4524 262.657L98.3719 255.127L103.34 244.918L109.127 244.472L122.36 247.874L122.36 247.854Z" fill="#2C2C2C"/>
<path d="M31.3783 205.951C31.3612 209.891 31.0045 213.116 30.6508 215.442C30.0982 219.064 29.4916 220.895 29.2725 221.522C28.5419 223.632 27.7913 225.741 25.9709 227.825C24.4354 229.573 22.7607 230.579 21.6624 231.143C23.593 231.801 25.5139 232.449 27.4447 233.097L39.4304 233.481L49.9397 226.012L51.4383 220.593L31.3683 205.951L31.3783 205.951Z" fill="#2C2C2C"/>
<path d="M298.452 210.341C297.079 222.323 289.438 228.503 279.281 233.726C274.038 236.67 265.826 238.142 259.189 239.996C248.711 242.504 238.6 245.988 228.151 247.187C218.031 248.47 202.701 251.129 190.999 252.619C185.959 253.256 184.348 252.633 178.616 252.73C170.223 252.878 159.778 251.747 151.485 251.877C143.519 252.251 138.525 251.819 130.826 250.287C123.696 248.844 116.958 248.656 110.194 246.138C102.504 243.346 93.5661 241.037 90.5254 232.782C89.0903 228.98 86.2763 224.399 87.2984 222.194C89.0533 219.799 95.4534 227.433 97.0736 228.806C100.462 231.696 104.891 233.85 108.468 235.482C112.312 237.298 117.111 238.807 121.486 239.891C143.541 245.201 164.219 244.09 186.458 242.962C209.066 241.89 226.753 239.486 248.789 234.374C261.771 231.542 276.705 227.228 287.246 218.3C289.058 216.806 290.723 215.08 292.229 213.311C293.752 211.683 298.914 204.687 298.454 210.201L298.452 210.331L298.452 210.341Z" fill="#4E4E4E"/>
<path d="M53.0531 212.718C53.0531 212.718 44.6321 205.825 38.7569 200.619C38.1645 200.091 37.1508 198.266 35.2937 191.148C32.9436 182.163 32.1871 175.012 31.9609 172.678C31.395 166.869 30.8991 161.752 31.5296 154.82C32.0056 149.576 32.4692 144.492 35.1465 138.491C37.5865 132.985 40.8231 129.102 43.1582 126.695" stroke="#535353" stroke-width="5" stroke-miterlimit="10"/>
<path d="M142.475 155.224C142.475 155.224 139.116 146.135 127.071 137.419C121.717 133.541 116.614 130.967 112.587 129.309C106.165 126.655 105.09 126.33 99.9062 121.694" stroke="#808080" stroke-width="5" stroke-miterlimit="10"/>
<path d="M242.722 155.584C243.114 145.109 242.685 141.552 237.994 132.633C235.571 128.018 233.235 125.654 231.172 123.744C230.915 123.51 230.638 123.326 230.371 123.102C227.754 120.804 225.451 118.23 223.442 115.401C223.177 115.027 222.933 114.633 222.709 114.23" stroke="#808080" stroke-width="5" stroke-miterlimit="10"/>
<path d="M297.291 216.653L294.904 215.912L294.903 215.914L297.291 216.653ZM275.811 235.833L275.104 233.435L275.066 233.447L275.028 233.459L275.811 235.833ZM215.651 249.203L215.945 251.686L215.945 251.686L215.651 249.203ZM116.797 247.391L116.173 249.812L116.213 249.822L116.253 249.831L116.797 247.391ZM94.4257 239.036L92.9947 241.086L92.9963 241.087L94.4257 239.036ZM117.32 230.201C118.642 230.599 120.037 229.85 120.435 228.528C120.833 227.206 120.084 225.811 118.762 225.413L117.32 230.201ZM293.065 198.389C291.169 200.019 291.169 200.018 291.168 200.018C291.168 200.018 291.168 200.017 291.167 200.017C291.167 200.016 291.166 200.015 291.166 200.015C291.165 200.014 291.165 200.013 291.165 200.013C291.165 200.014 291.167 200.016 291.17 200.02C291.177 200.028 291.19 200.044 291.209 200.067C291.248 200.114 291.31 200.192 291.391 200.297C291.554 200.509 291.793 200.833 292.077 201.256C292.645 202.104 293.378 203.332 294.023 204.831C295.321 207.849 296.187 211.774 294.904 215.912L297.291 216.653L299.679 217.393C301.438 211.724 300.191 206.517 298.616 202.855C297.824 201.014 296.929 199.515 296.23 198.472C295.88 197.949 295.575 197.536 295.353 197.247C295.241 197.102 295.15 196.988 295.083 196.906C295.05 196.865 295.023 196.833 295.002 196.808C294.992 196.796 294.983 196.786 294.977 196.778C294.973 196.774 294.97 196.77 294.968 196.767C294.966 196.766 294.965 196.764 294.964 196.763C294.964 196.763 294.963 196.762 294.963 196.761C294.962 196.761 294.961 196.76 293.065 198.389ZM297.291 216.653L294.903 215.914C293.579 220.196 290.496 224.045 286.698 227.139C282.906 230.227 278.588 232.409 275.104 233.435L275.811 235.833L276.518 238.231C280.667 237.009 285.573 234.503 289.855 231.015C294.131 227.533 297.971 222.916 299.68 217.391L297.291 216.653ZM275.811 235.833L275.028 233.459C258.55 238.895 238.478 243.981 215.357 246.721L215.651 249.203L215.945 251.686C239.449 248.901 259.85 243.731 276.594 238.208L275.811 235.833ZM215.651 249.203L215.357 246.721C173.031 251.734 142.145 250.477 117.341 244.951L116.797 247.391L116.253 249.831C141.772 255.516 173.257 256.742 215.945 251.686L215.651 249.203ZM116.797 247.391C117.421 244.97 117.421 244.97 117.421 244.97C117.421 244.97 117.421 244.97 117.421 244.97C117.421 244.97 117.42 244.97 117.42 244.97C117.418 244.97 117.416 244.969 117.412 244.968C117.405 244.966 117.394 244.963 117.379 244.96C117.35 244.952 117.305 244.94 117.246 244.925C117.128 244.894 116.953 244.847 116.726 244.786C116.273 244.665 115.617 244.485 114.81 244.257C113.194 243.801 110.982 243.151 108.592 242.375C103.687 240.784 98.4493 238.793 95.8552 236.985L94.4257 239.036L92.9963 241.087C96.2933 243.385 102.241 245.572 107.049 247.131C109.516 247.932 111.792 248.6 113.45 249.069C114.28 249.303 114.957 249.488 115.429 249.615C115.664 249.678 115.848 249.727 115.975 249.76C116.038 249.777 116.086 249.79 116.12 249.798C116.136 249.803 116.149 249.806 116.158 249.808C116.163 249.809 116.166 249.81 116.168 249.811C116.17 249.811 116.171 249.812 116.171 249.812C116.172 249.812 116.172 249.812 116.172 249.812C116.173 249.812 116.173 249.812 116.797 247.391ZM94.4257 239.036L95.8568 236.986C93.7196 235.494 91.9907 231.982 91.1679 227.921C90.7725 225.97 90.625 224.066 90.7045 222.491C90.7889 220.818 91.112 219.868 91.3429 219.524L89.268 218.129L87.1932 216.735C86.1924 218.224 85.8092 220.289 85.7108 222.239C85.6075 224.286 85.8007 226.61 86.2675 228.914C87.1691 233.364 89.2507 238.473 92.9947 241.086L94.4257 239.036ZM89.268 218.129L91.3429 219.524C91.7954 218.851 91.8644 219.074 91.4947 219.137C91.2227 219.183 91.2231 219.035 91.8927 219.404C92.5937 219.79 93.2154 220.243 94.4497 221.007C95.5649 221.696 96.9275 222.465 98.5911 223.123L99.5105 220.798L100.43 218.473C99.14 217.963 98.0535 217.356 97.0794 216.754C96.2244 216.225 95.1165 215.471 94.3032 215.023C93.4585 214.558 92.1597 213.953 90.6593 214.207C89.0611 214.478 87.9723 215.576 87.1932 216.735L89.268 218.129ZM99.5105 220.798L98.5911 223.123C104.199 225.34 104.89 226.458 117.32 230.201L118.041 227.807L118.762 225.413C106.557 221.738 106.636 220.927 100.43 218.473L99.5105 220.798Z" fill="#2C2C2C"/>
<path d="M255.603 122.407C255.603 122.407 268.527 117.414 262.036 104.999C254.257 93.0847 238.64 103.86 235.11 114.89" stroke="#2C2C2C" stroke-width="5" stroke-miterlimit="10"/>
<path d="M76.1424 123.238C76.1424 123.238 78.9836 123.18 79.0957 118.891L79.1311 79.8572C79.1646 78.2375 79.0079 76.625 78.6006 75.059C78.288 73.8543 77.8351 72.6676 77.2207 72.2787C76.4782 71.7579 75.8023 71.4681 74.8739 71.3546C58.9035 68.5029 43.2291 110.11 43.2291 110.11" stroke="#2C2C2C" stroke-width="5" stroke-miterlimit="10"/>
<path d="M70.682 72.0235C70.682 72.0235 63.3821 100.961 61.9508 107.251" stroke="#2C2C2C" stroke-width="5" stroke-miterlimit="10"/>
<path d="M73.4587 119.981C73.4587 119.981 80.9742 125.87 78.7724 130.119C76.5707 134.367 68.3928 129.328 68.3928 129.328C68.3928 129.328 60.3312 133.522 52.1187 130.873C45.1935 128.422 36.9845 123.463 39.6118 114.69C42.4705 105.14 56.1619 106.519 61.515 108.416C66.8681 110.314 71.5776 114.523 73.4587 119.981Z" stroke="#2C2C2C" stroke-width="5" stroke-miterlimit="10"/>
<path d="M142.963 64.84C138.007 65.1983 128.448 65.7798 112.215 68.595C103.432 70.1179 98.2615 70.8331 95.161 74.9886C94.0288 76.5124 93.4394 78.5341 93.3981 81.3838C93.2601 90.9128 94.4525 112.842 94.836 116.058C95.2195 119.274 97.0864 122.952 105.464 121.783C113.832 120.614 139.838 114.89 162.975 113.835C186.113 112.78 188.75 111.638 224.042 114.51C224.042 114.51 213.035 83.827 210.635 78.9818C209.673 77.0276 208.658 75.2928 207.131 73.7405C203.139 69.7122 198.113 68.6993 195.382 68.0497C182.674 65.0553 167.019 63.8784 160.387 64.0323C155.534 64.142 147.929 64.4819 142.973 64.8402L142.963 64.84Z" stroke="#2C2C2C" stroke-width="5" stroke-miterlimit="10"/>
<path d="M285.952 231.052C285.952 231.052 281.911 251.125 269.092 256.51C256.273 261.895 242.078 258.689 242.078 258.689C242.078 258.689 231.947 255.862 226.375 248.4" stroke="#2C2C2C" stroke-width="5" stroke-miterlimit="10"/>
<path d="M262.285 239.061C262.285 239.061 257.748 263.618 231.877 253.832" stroke="#2C2C2C" stroke-width="5" stroke-miterlimit="10"/>
<path d="M121.298 247.998C121.298 247.998 117.469 268.625 97.66 268.428C77.2308 268.222 59.8167 264.239 54.3743 224.326C54.3743 224.326 53.3782 179.177 73.9779 176.585C73.9779 176.585 74.8613 176.358 78.7928 176.975" stroke="#2C2C2C" stroke-width="5" stroke-miterlimit="10"/>
<path d="M104.664 242.618C104.664 242.618 95.2414 280.026 68.4921 259.766" stroke="#2C2C2C" stroke-width="5" stroke-miterlimit="10"/>
<path d="M91.3285 233.912C91.3285 233.912 83.6001 257.913 71.6137 240.317C61.0544 223.622 69.3349 205.701 69.3349 205.701C69.3349 205.701 75.0622 191.432 85.9224 199.09" stroke="#2C2C2C" stroke-width="5" stroke-miterlimit="10"/>
<path d="M51.4487 220.593C51.4487 220.593 45.6414 234.86 32.1537 233.915C18.666 232.969 15.9504 229.19 12.496 219.809C9.00294 209.637 7.44214 191.733 7.81231 177.226C8.18248 162.72 14.1046 152.955 17.7785 154.778" stroke="#2C2C2C" stroke-width="5" stroke-miterlimit="10"/>
<path d="M15.6041 178.518C15.6041 178.518 9.9238 195.758 17.0165 212.192C17.0165 212.192 21.5294 222.379 24.5593 210.672C27.0149 199.946 25.7985 184.507 23.0917 178.737C20.395 172.967 18.0025 171.742 15.6041 178.518Z" stroke="#2C2C2C" stroke-width="5" stroke-miterlimit="10"/>
<path d="M241.106 192.69C242.039 192.472 242.709 193.562 242.084 194.289C217.074 223.395 190.057 226.107 161.342 201.138" fill="#D9D9D9"/>
<path d="M161.342 201.138C190.057 226.107 217.074 223.395 242.084 194.289C242.709 193.562 242.039 192.472 241.106 192.69C210.797 199.788 192.395 200.712 162.035 199.413C161.101 199.373 160.636 200.524 161.342 201.138Z" stroke="#2C2C2C" stroke-width="5" stroke-miterlimit="10" stroke-linecap="round"/>
<path d="M202.038 206.835C190.94 208.175 180.411 211.001 180.411 211.001C180.411 211.001 184.082 212.937 188.152 213.999C196.801 216.257 203.303 215.499 203.303 215.499C203.303 215.499 211.442 215.001 217.547 211.501C223.651 208.001 227.721 205 227.721 205C227.721 205 214.445 205.336 202.038 206.835Z" fill="#9C5959"/>
<path d="M123.007 190.086C119.867 190.04 117.381 186.344 117.446 181.834C117.511 177.325 120.104 173.702 123.244 173.747C126.384 173.793 128.87 177.489 128.805 181.999C128.74 186.508 126.147 190.131 123.007 190.086Z" fill="#2C2C2C"/>
<path d="M31.9412 205.729C31.7055 208.876 30.8443 231.736 20.9498 231.282" stroke="#2C2C2C" stroke-width="5" stroke-miterlimit="10"/>
<path d="M89.2777 218.138C89.2777 218.138 84.4566 174.004 73.5586 172.406C62.6606 170.808 54.9662 202.81 53.6438 216.772L52.9016 223.822C38.5415 217.513 31.1919 205.005 31.1919 205.005C24.2779 161.051 22.0181 157.568 16.2945 153.634C10.5709 149.701 6.29932 183.603 6.29932 183.603C3.04179 175.125 1.25453 165.948 6.35679 146.5C11.459 127.051 31.5725 118.672 31.5725 118.672L35.8746 106.133C40.187 93.574 46.8603 80.2793 56.4739 71.1276C60.652 67.1477 64.6066 64.0947 70.4099 60.4584C98.4174 42.8822 134.054 43.3485 158.756 44.1064C173.681 44.5626 200.17 48.9668 211.323 60.5696C222.811 72.5573 235.109 114.89 235.109 114.89C235.109 114.89 274.903 128.718 281.216 142.301C287.096 152.027 293.139 167.046 293.131 184.878C293.113 202.709 290.911 205.568 290.911 205.568C290.911 205.568 286.251 211.041 282.61 213.158" stroke="#2C2C2C" stroke-width="5" stroke-miterlimit="10" stroke-linecap="round"/>
<path d="M132.087 153.655C121.208 153.497 112.222 164.198 112.028 177.566C111.835 190.935 120.497 201.892 131.386 202.049C142.275 202.207 151.251 191.506 151.444 178.138C151.638 164.769 142.976 153.812 132.087 153.655ZM131.422 199.53C122.353 199.398 114.186 189.839 114.355 178.2C114.524 166.561 122.952 158.093 132.021 158.224C141.09 158.356 147.02 167.032 146.852 178.671C146.683 190.31 140.491 199.661 131.422 199.53Z" fill="#8AC155"/>
<path d="M259.86 146.934C249.821 146.789 241.536 156.74 241.356 169.149C241.176 181.557 249.17 191.744 259.208 191.89C269.247 192.035 277.532 182.084 277.712 169.675C277.892 157.267 269.899 147.08 259.86 146.934ZM259.242 189.56C250.873 189.439 243.337 180.529 243.494 169.68C243.651 158.831 251.431 150.953 259.8 151.075C268.169 151.196 273.648 159.265 273.491 170.114C273.334 180.963 267.611 189.681 259.242 189.56Z" fill="#8AC155"/>
<path d="M251.548 181.798C248.659 181.756 246.368 178.293 246.43 174.053C246.491 169.814 248.881 166.418 251.77 166.46C254.66 166.502 256.95 169.965 256.889 174.205C256.827 178.444 254.438 181.84 251.548 181.798Z" fill="#2C2C2C"/>
<path d="M273 184.499C262.5 186.503 258 186.503 246.5 184.999C248.5 187.503 251 191.999 260.239 191.999C266 191.999 270.5 187.503 273 184.499Z" fill="#878787"/>
<path d="M273.413 154.756C262.073 153.478 253.598 153.553 245.36 154.657C244.481 154.775 243.806 153.741 244.252 152.975C246.301 149.455 249.056 145.002 259.781 145.002C268.023 145.002 271.868 149.445 274.374 153.233C274.838 153.935 274.25 154.85 273.413 154.756Z" fill="#878787" stroke="#2C2C2C" stroke-width="4"/>
<path d="M146.499 195.999C137 197.995 129 198.495 117.5 196.499C119.764 199.17 122.094 202.003 132.553 202.003C139.075 202.003 143.669 199.203 146.499 195.999Z" fill="#878787"/>
<path d="M148.321 162.167C136.673 160.767 128.8 160.434 115 162.501C116.5 160.501 120.999 152.001 132.273 152.001C140.631 152.001 144.223 155.09 149.186 160.499C149.813 161.183 149.242 162.277 148.321 162.167Z" fill="#878787" stroke="#2C2C2C" stroke-width="4"/>
<path d="M131.32 204.409C119.161 204.233 109.485 192.171 109.698 177.463C109.911 162.754 119.933 150.978 132.092 151.154C144.25 151.33 153.927 163.392 153.714 178.1C153.501 192.809 143.479 204.585 131.32 204.409Z" stroke="#2C2C2C" stroke-width="5" stroke-miterlimit="10"/>
<path d="M259.233 194.302C247.864 194.137 238.816 182.885 239.015 169.166C239.214 155.448 248.584 144.462 259.953 144.627C271.322 144.792 280.37 156.044 280.171 169.762C279.972 183.481 270.602 194.466 259.233 194.302Z" stroke="#2C2C2C" stroke-width="5" stroke-miterlimit="10"/>
<path d="M89.283 55.5994C84.6891 34.2574 78.421 21.0235 66.2344 6.99854" stroke="#2C2C2C" stroke-width="5"/>
<path d="M91.283 55.6267C86.6891 34.2847 80.421 21.0508 68.2344 7.02588" stroke="#373737" stroke-width="2"/>
<path d="M90.1856 60.9788C92.6706 61.0148 94.7143 59.0295 94.7503 56.5445C94.7863 54.0594 92.801 52.0157 90.3159 51.9797C87.8309 51.9437 85.7872 53.9291 85.7512 56.4141C85.7152 58.8991 87.7005 60.9428 90.1856 60.9788Z" fill="#2C2C2C"/>
<path d="M64.9991 10.107C67.7603 10.147 70.0311 7.94111 70.0711 5.17998C70.1111 2.41884 67.9051 0.148074 65.144 0.108073C62.3829 0.0680719 60.1121 2.27399 60.0721 5.03512C60.0321 7.79625 62.238 10.067 64.9991 10.107Z" fill="#2C2C2C"/>
<path d="M65.2143 0.0587958C68.014 0.0993558 70.2508 2.402 70.2103 5.20171C70.1854 6.92153 69.3034 8.42891 67.9702 9.32969C68.5521 8.51803 68.9065 7.52306 68.922 6.45318C68.9626 3.65347 66.7257 1.35083 63.926 1.31027C62.8561 1.29477 61.8513 1.62024 61.0231 2.17831C61.962 0.881771 63.4943 0.0438793 65.2141 0.0687947L65.2143 0.0587958Z" fill="#373737"/>
<path d="M91.365 51.9973C93.8063 52.6128 95.2806 55.0844 94.6754 57.5159C94.3037 59.0107 93.217 60.155 91.8794 60.6657C92.5581 60.0755 93.0696 59.2828 93.3032 58.3461C93.9186 55.9048 92.4343 53.433 89.9928 52.8276C89.0561 52.594 88.1149 52.6703 87.2702 52.9881C88.354 52.0437 89.8702 51.6257 91.375 51.9975L91.365 51.9973Z" fill="#373737"/>
<defs>
<filter id="filter0_f_1138_7159" x="6.69141" y="203" width="269.037" height="87.5742" filterUnits="userSpaceOnUse" color-interpolation-filters="sRGB">
<feFlood flood-opacity="0" result="BackgroundImageFix"/>
<feBlend mode="normal" in="SourceGraphic" in2="BackgroundImageFix" result="shape"/>
<feGaussianBlur stdDeviation="9.5" result="effect1_foregroundBlur_1138_7159"/>
</filter>
</defs>
</svg>
